<svg width="18" height="19" viewBox="0 0 18 19" fill="none" xmlns="http://www.w3.org/2000/svg">
<path fill-rule="evenodd" clip-rule="evenodd" d="M9 1.4375C4.5472 1.4375 0.9375 5.0472 0.9375 9.5C0.9375 13.9528 4.5472 17.5625 9 17.5625C13.4528 17.5625 17.0625 13.9528 17.0625 9.5C17.0625 5.0472 13.4528 1.4375 9 1.4375ZM2.0625 9.5C2.0625 7.78676 2.68353 6.21856 3.71275 5.00825L6.1146 7.4101C5.68866 7.99714 5.4375 8.71924 5.4375 9.5C5.4375 10.2808 5.68866 11.0029 6.1146 11.5899L3.71275 13.9918C2.68353 12.7814 2.0625 11.2132 2.0625 9.5ZM6.9101 6.6146L4.50825 4.21275C5.71856 3.18353 7.28676 2.5625 9 2.5625C10.7132 2.5625 12.2814 3.18353 13.4918 4.21275L11.0899 6.6146C10.5029 6.18866 9.78076 5.9375 9 5.9375C8.21924 5.9375 7.49714 6.18866 6.9101 6.6146ZM4.50824 14.7872C5.71856 15.8165 7.28675 16.4375 9 16.4375C10.7132 16.4375 12.2814 15.8165 13.4918 14.7872L11.0899 12.3854C10.5029 12.8113 9.78076 13.0625 9 13.0625C8.21924 13.0625 7.49714 12.8113 6.91009 12.3854L4.50824 14.7872ZM11.8854 11.5899L14.2873 13.9918C15.3165 12.7814 15.9375 11.2132 15.9375 9.5C15.9375 7.78676 15.3165 6.21856 14.2872 5.00825L11.8854 7.4101C12.3113 7.99714 12.5625 8.71924 12.5625 9.5C12.5625 10.2808 12.3113 11.0029 11.8854 11.5899ZM6.5625 9.5C6.5625 8.15381 7.65381 7.0625 9 7.0625C10.3462 7.0625 11.4375 8.15381 11.4375 9.5C11.4375 10.8462 10.3462 11.9375 9 11.9375C7.65381 11.9375 6.5625 10.8462 6.5625 9.5Z" fill="#221F20"/>
</svg>
