<svg width="18" height="19" viewBox="0 0 18 19" fill="none" xmlns="http://www.w3.org/2000/svg">
<path fill-rule="evenodd" clip-rule="evenodd" d="M3.8091 4.30169C6.6556 1.4592 11.2828 1.48942 14.1467 4.35333C17.0119 7.21848 17.0409 11.8485 14.1947 14.6946C11.3485 17.5408 6.71854 17.5118 3.85339 14.6467C2.15551 12.9488 1.45437 10.6324 1.75544 8.43592C1.79763 8.12814 2.08134 7.91283 2.38912 7.95502C2.6969 7.9972 2.91221 8.28091 2.87002 8.58869C2.61504 10.4489 3.20846 12.4108 4.64889 13.8512C7.08225 16.2845 10.9999 16.2985 13.3992 13.8992C15.7985 11.4998 15.7846 7.58219 13.3512 5.14883C10.9191 2.71671 7.00426 2.70154 4.6046 5.09718L5.16538 5.1C5.47603 5.10156 5.72661 5.35466 5.72504 5.66532C5.72348 5.97597 5.47038 6.22654 5.15973 6.22498L3.25056 6.21539C2.94211 6.21384 2.69245 5.96417 2.6909 5.65572L2.6813 3.74656C2.67974 3.4359 2.93031 3.1828 3.24097 3.18124C3.55162 3.17968 3.80473 3.43025 3.80629 3.7409L3.8091 4.30169ZM9 5.93744C9.31066 5.93744 9.5625 6.18928 9.5625 6.49994V9.26694L11.2727 10.9772C11.4924 11.1969 11.4924 11.553 11.2727 11.7727C11.0531 11.9924 10.6969 11.9924 10.4773 11.7727L8.4375 9.73293V6.49994C8.4375 6.18928 8.68934 5.93744 9 5.93744Z" fill="#221F20"/>
</svg>
