<svg width="18" height="17" viewBox="0 0 18 17" fill="none" xmlns="http://www.w3.org/2000/svg">
<path fill-rule="evenodd" clip-rule="evenodd" d="M8.95884 0.4375H9.04116C10.0668 0.437485 10.8936 0.437472 11.5438 0.524893C12.2189 0.615655 12.7873 0.809825 13.2387 1.26126C13.7937 1.81625 13.9654 2.55638 14.0259 3.47457C14.2097 3.48684 14.3822 3.50316 14.5438 3.52489C15.2189 3.61566 15.7873 3.80983 16.2387 4.26126C16.6902 4.7127 16.8843 5.28111 16.9751 5.95619C17.0625 6.60641 17.0625 7.43316 17.0625 8.45885V8.54115C17.0625 9.56685 17.0625 10.3936 16.9751 11.0438C16.8843 11.7189 16.6902 12.2873 16.2387 12.7387C15.6838 13.2937 14.9436 13.4654 14.0254 13.5259C14.0132 13.7097 13.9968 13.8822 13.9751 14.0438C13.8843 14.7189 13.6902 15.2873 13.2387 15.7387C12.7873 16.1902 12.2189 16.3843 11.5438 16.4751C10.8936 16.5625 10.0668 16.5625 9.04115 16.5625H8.95885C7.93315 16.5625 7.10641 16.5625 6.45619 16.4751C5.78111 16.3843 5.2127 16.1902 4.76126 15.7387C4.30982 15.2873 4.11565 14.7189 4.02489 14.0438C4.00316 13.8822 3.98684 13.7097 3.97457 13.5259C3.05638 13.4654 2.31625 13.2937 1.76126 12.7387C1.30983 12.2873 1.11566 11.7189 1.02489 11.0438C0.937472 10.3936 0.937485 9.56685 0.9375 8.54116V8.45884C0.937485 7.43315 0.937472 6.60641 1.02489 5.95619C1.11566 5.28111 1.30983 4.7127 1.76126 4.26126C2.2127 3.80983 2.78111 3.61566 3.45619 3.52489C3.6178 3.50316 3.79032 3.48684 3.9741 3.47457C4.03464 2.55638 4.20628 1.81625 4.76126 1.26126C5.2127 0.809826 5.7811 0.615655 6.45619 0.524893C7.10641 0.437472 7.93315 0.437485 8.95884 0.4375ZM5.10536 3.43971C5.37304 3.43749 5.65735 3.4375 5.95884 3.4375H12.0412C12.3427 3.4375 12.627 3.43749 12.8946 3.43971C12.8332 2.67407 12.6949 2.30839 12.4432 2.05676C12.2357 1.84919 11.9442 1.71385 11.3939 1.63986C10.8274 1.5637 10.0766 1.5625 9 1.5625C7.92344 1.5625 7.1726 1.5637 6.60609 1.63986C6.05576 1.71385 5.76433 1.84919 5.55676 2.05676C5.30512 2.30839 5.16682 2.67407 5.10536 3.43971ZM3.93971 12.3946C3.93749 12.127 3.93749 11.8427 3.9375 11.5412L3.9375 11.3125H3.75C3.43934 11.3125 3.1875 11.0607 3.1875 10.75C3.1875 10.4393 3.43934 10.1875 3.75 10.1875H14.25C14.5607 10.1875 14.8125 10.4393 14.8125 10.75C14.8125 11.0607 14.5607 11.3125 14.25 11.3125H14.0625V11.5412C14.0625 11.8426 14.0625 12.127 14.0603 12.3946C14.8259 12.3332 15.1916 12.1949 15.4432 11.9432C15.6508 11.7357 15.7861 11.4442 15.8601 10.8939C15.9363 10.3274 15.9375 9.57656 15.9375 8.5C15.9375 7.42344 15.9363 6.6726 15.8601 6.10609C15.7861 5.55576 15.6508 5.26433 15.4432 5.05676C15.2357 4.84919 14.9442 4.71385 14.3939 4.63986C13.8274 4.5637 13.0766 4.5625 12 4.5625H6C4.92344 4.5625 4.1726 4.5637 3.60609 4.63986C3.05576 4.71385 2.76433 4.84919 2.55676 5.05676C2.34919 5.26433 2.21385 5.55576 2.13986 6.10609C2.0637 6.6726 2.0625 7.42344 2.0625 8.5C2.0625 9.57656 2.0637 10.3274 2.13986 10.8939C2.21385 11.4442 2.34919 11.7357 2.55676 11.9432C2.80839 12.1949 3.17407 12.3332 3.93971 12.3946ZM12.9375 11.3125H5.0625V11.5C5.0625 12.5766 5.06369 13.3274 5.13986 13.8939C5.21385 14.4442 5.34918 14.7357 5.55676 14.9432C5.76433 15.1508 6.05576 15.2862 6.60609 15.3601C7.1726 15.4363 7.92344 15.4375 9 15.4375C10.0766 15.4375 10.8274 15.4363 11.3939 15.3601C11.9442 15.2862 12.2357 15.1508 12.4432 14.9432C12.6508 14.7357 12.7861 14.4442 12.8601 13.8939C12.9363 13.3274 12.9375 12.5766 12.9375 11.5V11.3125ZM3.9375 7C3.9375 6.68934 4.18934 6.4375 4.5 6.4375H6.75C7.06066 6.4375 7.3125 6.68934 7.3125 7C7.3125 7.31066 7.06066 7.5625 6.75 7.5625H4.5C4.18934 7.5625 3.9375 7.31066 3.9375 7Z" fill="#221F20"/>
<path d="M13.5 7C13.5 7.41422 13.1642 7.75 12.75 7.75C12.3358 7.75 12 7.41422 12 7C12 6.58579 12.3358 6.25 12.75 6.25C13.1642 6.25 13.5 6.58579 13.5 7Z" fill="#221F20"/>
</svg>
