<svg width="92" height="23" viewBox="0 0 92 23" fill="none" xmlns="http://www.w3.org/2000/svg">
<rect width="92" height="23" rx="10" fill="url(#paint0_linear_947_9872)"/>
<path d="M29.4409 16.096C28.8489 16.096 28.2729 16.004 27.7129 15.82C27.1609 15.636 26.7089 15.388 26.3569 15.076L26.9089 14.128C27.1889 14.392 27.5529 14.608 28.0009 14.776C28.4489 14.944 28.9289 15.028 29.4409 15.028C30.0649 15.028 30.5489 14.896 30.8929 14.632C31.2449 14.36 31.4209 13.996 31.4209 13.54C31.4209 13.1 31.2529 12.748 30.9169 12.484C30.5889 12.212 30.0649 12.076 29.3449 12.076H28.6729V11.236L31.1689 8.164L31.3369 8.644H26.7409V7.6H32.2849V8.416L29.8009 11.476L29.1769 11.104H29.5729C30.5889 11.104 31.3489 11.332 31.8529 11.788C32.3649 12.244 32.6209 12.824 32.6209 13.528C32.6209 14 32.5049 14.432 32.2729 14.824C32.0409 15.216 31.6889 15.528 31.2169 15.76C30.7529 15.984 30.1609 16.096 29.4409 16.096ZM45.4347 9.58C45.9467 9.58 46.3987 9.68 46.7907 9.88C47.1827 10.08 47.4867 10.384 47.7027 10.792C47.9267 11.2 48.0387 11.716 48.0387 12.34V16H46.8867V12.472C46.8867 11.856 46.7427 11.392 46.4547 11.08C46.1667 10.768 45.7627 10.612 45.2427 10.612C44.8587 10.612 44.5227 10.692 44.2347 10.852C43.9467 11.012 43.7227 11.248 43.5627 11.56C43.4107 11.872 43.3347 12.26 43.3347 12.724V16H42.1827V12.472C42.1827 11.856 42.0387 11.392 41.7507 11.08C41.4707 10.768 41.0667 10.612 40.5387 10.612C40.1627 10.612 39.8307 10.692 39.5427 10.852C39.2547 11.012 39.0307 11.248 38.8707 11.56C38.7107 11.872 38.6307 12.26 38.6307 12.724V16H37.4787V9.64H38.5827V11.332L38.4027 10.9C38.6027 10.484 38.9107 10.16 39.3267 9.928C39.7427 9.696 40.2267 9.58 40.7787 9.58C41.3867 9.58 41.9107 9.732 42.3507 10.036C42.7907 10.332 43.0787 10.784 43.2147 11.392L42.7467 11.2C42.9387 10.712 43.2747 10.32 43.7547 10.024C44.2347 9.728 44.7947 9.58 45.4347 9.58ZM52.8824 16.072C52.2424 16.072 51.6744 15.932 51.1784 15.652C50.6824 15.372 50.2904 14.988 50.0024 14.5C49.7144 14.004 49.5704 13.444 49.5704 12.82C49.5704 12.188 49.7144 11.628 50.0024 11.14C50.2904 10.652 50.6824 10.272 51.1784 10C51.6744 9.72 52.2424 9.58 52.8824 9.58C53.5144 9.58 54.0784 9.72 54.5744 10C55.0784 10.272 55.4704 10.652 55.7504 11.14C56.0384 11.62 56.1824 12.18 56.1824 12.82C56.1824 13.452 56.0384 14.012 55.7504 14.5C55.4704 14.988 55.0784 15.372 54.5744 15.652C54.0784 15.932 53.5144 16.072 52.8824 16.072ZM52.8824 15.064C53.2904 15.064 53.6544 14.972 53.9744 14.788C54.3024 14.604 54.5584 14.344 54.7424 14.008C54.9264 13.664 55.0184 13.268 55.0184 12.82C55.0184 12.364 54.9264 11.972 54.7424 11.644C54.5584 11.308 54.3024 11.048 53.9744 10.864C53.6544 10.68 53.2904 10.588 52.8824 10.588C52.4744 10.588 52.1104 10.68 51.7904 10.864C51.4704 11.048 51.2144 11.308 51.0224 11.644C50.8304 11.972 50.7344 12.364 50.7344 12.82C50.7344 13.268 50.8304 13.664 51.0224 14.008C51.2144 14.344 51.4704 14.604 51.7904 14.788C52.1104 14.972 52.4744 15.064 52.8824 15.064ZM61.1716 9.58C61.6916 9.58 62.1476 9.68 62.5396 9.88C62.9396 10.08 63.2516 10.384 63.4756 10.792C63.6996 11.2 63.8116 11.716 63.8116 12.34V16H62.6596V12.472C62.6596 11.856 62.5076 11.392 62.2036 11.08C61.9076 10.768 61.4876 10.612 60.9436 10.612C60.5356 10.612 60.1796 10.692 59.8756 10.852C59.5716 11.012 59.3356 11.248 59.1676 11.56C59.0076 11.872 58.9276 12.26 58.9276 12.724V16H57.7756V9.64H58.8796V11.356L58.6996 10.9C58.9076 10.484 59.2276 10.16 59.6596 9.928C60.0916 9.696 60.5956 9.58 61.1716 9.58ZM68.1276 16.072C67.4876 16.072 66.9916 15.9 66.6396 15.556C66.2876 15.212 66.1116 14.72 66.1116 14.08V8.248H67.2636V14.032C67.2636 14.376 67.3476 14.64 67.5156 14.824C67.6916 15.008 67.9396 15.1 68.2596 15.1C68.6196 15.1 68.9196 15 69.1596 14.8L69.5196 15.628C69.3436 15.78 69.1316 15.892 68.8836 15.964C68.6436 16.036 68.3916 16.072 68.1276 16.072ZM65.0316 10.588V9.64H69.0876V10.588H65.0316ZM74.3083 9.58C74.8283 9.58 75.2843 9.68 75.6763 9.88C76.0763 10.08 76.3883 10.384 76.6123 10.792C76.8363 11.2 76.9483 11.716 76.9483 12.34V16H75.7963V12.472C75.7963 11.856 75.6443 11.392 75.3403 11.08C75.0443 10.768 74.6243 10.612 74.0803 10.612C73.6723 10.612 73.3163 10.692 73.0123 10.852C72.7083 11.012 72.4723 11.248 72.3043 11.56C72.1443 11.872 72.0643 12.26 72.0643 12.724V16H70.9123V7.096H72.0643V11.356L71.8363 10.9C72.0443 10.484 72.3643 10.16 72.7963 9.928C73.2283 9.696 73.7323 9.58 74.3083 9.58ZM80.9043 16.072C80.3763 16.072 79.8723 16 79.3923 15.856C78.9203 15.712 78.5483 15.536 78.2763 15.328L78.7563 14.416C79.0283 14.6 79.3643 14.756 79.7643 14.884C80.1643 15.012 80.5723 15.076 80.9883 15.076C81.5243 15.076 81.9083 15 82.1403 14.848C82.3803 14.696 82.5003 14.484 82.5003 14.212C82.5003 14.012 82.4283 13.856 82.2843 13.744C82.1403 13.632 81.9483 13.548 81.7083 13.492C81.4763 13.436 81.2163 13.388 80.9283 13.348C80.6403 13.3 80.3523 13.244 80.0643 13.18C79.7763 13.108 79.5123 13.012 79.2723 12.892C79.0323 12.764 78.8403 12.592 78.6963 12.376C78.5523 12.152 78.4803 11.856 78.4803 11.488C78.4803 11.104 78.5883 10.768 78.8043 10.48C79.0203 10.192 79.3243 9.972 79.7163 9.82C80.1163 9.66 80.5883 9.58 81.1323 9.58C81.5483 9.58 81.9683 9.632 82.3923 9.736C82.8243 9.832 83.1763 9.972 83.4483 10.156L82.9563 11.068C82.6683 10.876 82.3683 10.744 82.0563 10.672C81.7443 10.6 81.4323 10.564 81.1203 10.564C80.6163 10.564 80.2403 10.648 79.9923 10.816C79.7443 10.976 79.6203 11.184 79.6203 11.44C79.6203 11.656 79.6923 11.824 79.8363 11.944C79.9883 12.056 80.1803 12.144 80.4123 12.208C80.6523 12.272 80.9163 12.328 81.2043 12.376C81.4923 12.416 81.7803 12.472 82.0683 12.544C82.3563 12.608 82.6163 12.7 82.8483 12.82C83.0883 12.94 83.2803 13.108 83.4243 13.324C83.5763 13.54 83.6523 13.828 83.6523 14.188C83.6523 14.572 83.5403 14.904 83.3163 15.184C83.0923 15.464 82.7763 15.684 82.3683 15.844C81.9603 15.996 81.4723 16.072 80.9043 16.072Z" fill="white"/>
<g clip-path="url(#clip0_947_9872)">
<path d="M8.33301 15.6673H21.6663V17.0007H8.33301V15.6673ZM8.33301 6.33398L11.6663 8.33398L14.9997 4.33398L18.333 8.33398L21.6663 6.33398V14.334H8.33301V6.33398Z" fill="white"/>
</g>
<defs>
<linearGradient id="paint0_linear_947_9872" x1="-19.3333" y1="3.5" x2="83.7311" y2="30.2924" gradientUnits="userSpaceOnUse">
<stop stop-color="#CF93ED"/>
<stop offset="1" stop-color="#9059EE"/>
</linearGradient>
<clipPath id="clip0_947_9872">
<rect width="16" height="16" fill="white" transform="translate(7 3)"/>
</clipPath>
</defs>
</svg>
