<svg width="18" height="19" viewBox="0 0 18 19" fill="none" xmlns="http://www.w3.org/2000/svg">
<path fill-rule="evenodd" clip-rule="evenodd" d="M9 6.6875C7.4467 6.6875 6.1875 7.9467 6.1875 9.5C6.1875 11.0533 7.4467 12.3125 9 12.3125C10.5533 12.3125 11.8125 11.0533 11.8125 9.5C11.8125 7.9467 10.5533 6.6875 9 6.6875ZM7.3125 9.5C7.3125 8.56802 8.06802 7.8125 9 7.8125C9.93198 7.8125 10.6875 8.56802 10.6875 9.5C10.6875 10.432 9.93198 11.1875 9 11.1875C8.06802 11.1875 7.3125 10.432 7.3125 9.5Z" fill="#221F20"/>
<path fill-rule="evenodd" clip-rule="evenodd" d="M8.98106 1.4375C8.64771 1.43749 8.36943 1.43749 8.14097 1.45308C7.90315 1.4693 7.6785 1.50429 7.46071 1.5945C6.95534 1.80383 6.55382 2.20535 6.34449 2.71072C6.23551 2.97381 6.206 3.25109 6.19473 3.55247C6.18567 3.79474 6.0634 3.99688 5.88296 4.10106C5.70253 4.20523 5.46634 4.21005 5.252 4.09676C4.98535 3.95583 4.73046 3.84275 4.44812 3.80557C3.9058 3.73418 3.35732 3.88114 2.92334 4.21414C2.73632 4.35765 2.5937 4.5347 2.46074 4.73255C2.33301 4.92261 2.19387 5.16361 2.02721 5.4523L2.00826 5.48511C1.84159 5.77379 1.70245 6.01478 1.60172 6.22042C1.49686 6.4345 1.41483 6.64654 1.38406 6.88026C1.31266 7.42259 1.45963 7.97107 1.79262 8.40504C1.96596 8.63094 2.1913 8.79512 2.44663 8.95555C2.65196 9.08457 2.76591 9.29158 2.7659 9.49999C2.76589 9.70837 2.65194 9.91535 2.44663 10.0443C2.19127 10.2048 1.9659 10.369 1.79255 10.5949C1.45955 11.0289 1.31259 11.5774 1.38399 12.1197C1.41476 12.3534 1.49678 12.5654 1.60164 12.7795C1.70237 12.9852 1.84151 13.2262 2.00818 13.5148L2.02713 13.5476C2.1938 13.8363 2.33294 14.0773 2.46067 14.2674C2.59363 14.4652 2.73625 14.6423 2.92327 14.7858C3.35724 15.1188 3.90572 15.2658 4.44805 15.1944C4.73038 15.1572 4.98525 15.0441 5.25188 14.9032C5.46625 14.7899 5.70247 14.7947 5.88293 14.8989C6.06339 15.0031 6.18567 15.2053 6.19473 15.4476C6.206 15.7489 6.23552 16.0262 6.34449 16.2893C6.55382 16.7947 6.95534 17.1962 7.46071 17.4055C7.6785 17.4957 7.90315 17.5307 8.14097 17.5469C8.36943 17.5625 8.64771 17.5625 8.98105 17.5625H9.01894C9.35228 17.5625 9.63056 17.5625 9.85902 17.5469C10.0968 17.5307 10.3215 17.4957 10.5393 17.4055C11.0446 17.1962 11.4462 16.7947 11.6555 16.2893C11.7645 16.0262 11.794 15.7489 11.8053 15.4475C11.8143 15.2052 11.9366 15.0031 12.117 14.8989C12.2975 14.7947 12.5337 14.7899 12.7481 14.9032C13.0147 15.0441 13.2695 15.1572 13.5519 15.1943C14.0942 15.2657 14.6427 15.1188 15.0766 14.7858C15.2637 14.6423 15.4063 14.4652 15.5392 14.2673C15.667 14.0773 15.8061 13.8363 15.9728 13.5476L15.9917 13.5148C16.1584 13.2262 16.2975 12.9851 16.3983 12.7795C16.5031 12.5654 16.5852 12.3534 16.6159 12.1196C16.6873 11.5773 16.5404 11.0288 16.2074 10.5949C16.034 10.3689 15.8087 10.2048 15.5533 10.0443C15.348 9.91532 15.2341 9.70834 15.2341 9.49996C15.2341 9.29161 15.348 9.08466 15.5533 8.95568C15.8087 8.79522 16.0341 8.63102 16.2074 8.40509C16.5404 7.97112 16.6874 7.42264 16.616 6.88031C16.5852 6.64659 16.5032 6.43455 16.3983 6.22048C16.2976 6.01484 16.1585 5.77387 15.9918 5.48522L15.9729 5.45238C15.8062 5.16369 15.6671 4.92266 15.5393 4.7326C15.4064 4.53475 15.2637 4.3577 15.0767 4.21419C14.6427 3.88119 14.0943 3.73423 13.5519 3.80563C13.2696 3.8428 13.0147 3.95586 12.7481 4.09679C12.5337 4.21009 12.2975 4.20527 12.1171 4.10108C11.9366 3.99689 11.8143 3.79473 11.8053 3.55243C11.794 3.25106 11.7645 2.9738 11.6555 2.71072C11.4462 2.20535 11.0446 1.80383 10.5393 1.5945C10.3215 1.50429 10.0968 1.4693 9.85902 1.45308C9.63056 1.43749 9.35228 1.43749 9.01893 1.4375H8.98106ZM7.89123 2.63386C7.94909 2.60989 8.037 2.58779 8.21755 2.57547C8.40315 2.56281 8.64284 2.5625 8.99999 2.5625C9.35715 2.5625 9.59684 2.56281 9.78244 2.57547C9.96298 2.58779 10.0509 2.60989 10.1088 2.63386C10.3385 2.72901 10.521 2.91152 10.6161 3.14123C10.6461 3.21369 10.671 3.32665 10.681 3.59448C10.7033 4.18876 11.01 4.76097 11.5546 5.07536C12.0991 5.38976 12.748 5.3693 13.2738 5.09141C13.5108 4.96617 13.621 4.93124 13.6988 4.921C13.9453 4.88855 14.1946 4.95535 14.3919 5.10671C14.4415 5.14484 14.5047 5.20992 14.6056 5.36012C14.7094 5.51452 14.8295 5.72195 15.008 6.03125C15.1866 6.34055 15.3062 6.54829 15.388 6.71535C15.4676 6.87787 15.4925 6.96505 15.5006 7.02715C15.5331 7.27366 15.4663 7.52297 15.3149 7.72023C15.2672 7.78246 15.1818 7.8605 14.9548 8.0031C14.4513 8.31947 14.1091 8.87116 14.1091 9.4999C14.1091 10.1287 14.4512 10.6805 14.9548 10.9969C15.1817 11.1395 15.2671 11.2175 15.3148 11.2797C15.4662 11.477 15.533 11.7263 15.5006 11.9728C15.4924 12.0349 15.4676 12.1221 15.388 12.2846C15.3061 12.4517 15.1865 12.6594 15.008 12.9687C14.8294 13.278 14.7093 13.4854 14.6055 13.6398C14.5046 13.79 14.4415 13.8551 14.3918 13.8932C14.1945 14.0446 13.9452 14.1114 13.6987 14.0789C13.6209 14.0687 13.5107 14.0338 13.2738 13.9086C12.748 13.6307 12.099 13.6102 11.5545 13.9247C11.01 14.2391 10.7033 14.8112 10.681 15.4055C10.671 15.6733 10.6461 15.7863 10.6161 15.8588C10.521 16.0885 10.3385 16.271 10.1088 16.3661C10.0509 16.3901 9.96298 16.4122 9.78244 16.4245C9.59684 16.4372 9.35715 16.4375 8.99999 16.4375C8.64284 16.4375 8.40315 16.4372 8.21755 16.4245C8.037 16.4122 7.94909 16.3901 7.89123 16.3661C7.66151 16.271 7.47901 16.0885 7.38386 15.8588C7.35384 15.7863 7.32896 15.6733 7.31895 15.4055C7.29672 14.8112 6.98998 14.239 6.44543 13.9246C5.90088 13.6102 5.25196 13.6307 4.72619 13.9086C4.48924 14.0338 4.37897 14.0688 4.30121 14.079C4.0547 14.1115 3.80539 14.0447 3.60813 13.8933C3.55844 13.8552 3.49534 13.7901 3.39439 13.6399C3.29063 13.4855 3.17052 13.2781 2.99194 12.9688C2.81337 12.6594 2.69378 12.4517 2.61195 12.2847C2.53235 12.1221 2.50754 12.0349 2.49936 11.9728C2.46691 11.7263 2.53371 11.477 2.68507 11.2798C2.73282 11.2175 2.81821 11.1395 3.04515 10.9969C3.54869 10.6805 3.89086 10.1288 3.8909 9.50005C3.89093 8.8712 3.54874 8.3194 3.04516 8.00299C2.81826 7.86042 2.73289 7.7824 2.68515 7.72018C2.53378 7.52292 2.46698 7.27361 2.49943 7.0271C2.50761 6.965 2.53242 6.87782 2.61202 6.7153C2.69386 6.54824 2.81344 6.3405 2.99202 6.0312C3.17059 5.7219 3.2907 5.51447 3.39447 5.36007C3.49541 5.20987 3.55851 5.14479 3.6082 5.10666C3.80546 4.9553 4.05477 4.8885 4.30128 4.92095C4.37905 4.93119 4.48932 4.96613 4.7263 5.09138C5.25205 5.36926 5.90093 5.38972 6.44546 5.07534C6.98999 4.76096 7.29672 4.18878 7.31894 3.59451C7.32896 3.32666 7.35384 3.2137 7.38386 3.14124C7.47901 2.91152 7.66151 2.72901 7.89123 2.63386Z" fill="#221F20"/>
</svg>
