<svg width="18" height="18" viewBox="0 0 18 18" fill="none" xmlns="http://www.w3.org/2000/svg">
<path fill-rule="evenodd" clip-rule="evenodd" d="M10.698 0.313504C10.9703 0.193742 11.2875 0.246172 11.5068 0.44715L17.5068 5.94715C17.8121 6.22704 17.8328 6.70147 17.5529 7.00681C17.273 7.31215 16.7985 7.33277 16.4932 7.05288L11.75 2.70494L11.75 17C11.75 17.4142 11.4142 17.75 11 17.75C10.5858 17.75 10.25 17.4142 10.25 17L10.25 1.00002C10.25 0.70259 10.4258 0.433266 10.698 0.313504ZM7 0.250015C7.41422 0.250015 7.75 0.585802 7.75 1.00002L7.75001 17C7.75001 17.2974 7.57425 17.5668 7.302 17.6865C7.02976 17.8063 6.71246 17.7539 6.49321 17.5529L0.493211 12.0529C0.187872 11.773 0.167245 11.2986 0.447139 10.9932C0.727033 10.6879 1.20146 10.6673 1.5068 10.9471L6.25001 15.2951L6.25 1.00002C6.25 0.585802 6.58579 0.250015 7 0.250015Z" fill="#FF671D"/>
</svg>
