<svg width="18" height="19" viewBox="0 0 18 19" fill="none" xmlns="http://www.w3.org/2000/svg">
<path fill-rule="evenodd" clip-rule="evenodd" d="M9 1.4375C8.54645 1.4375 8.12884 1.55021 7.67158 1.73932C7.23006 1.92191 6.71724 2.19103 6.07868 2.52614L4.52804 3.33988C3.74431 3.75115 3.11712 4.08028 2.63285 4.40368C2.13115 4.73873 1.74474 5.09151 1.46334 5.56938C1.18289 6.04566 1.05672 6.56138 0.996216 7.17554C0.937489 7.77168 0.937494 8.50486 0.9375 9.42692V9.57306C0.937494 10.4951 0.937489 11.2283 0.996216 11.8245C1.05672 12.4386 1.18289 12.9543 1.46334 13.4306C1.74474 13.9085 2.13115 14.2613 2.63285 14.5963C3.11712 14.9197 3.74431 15.2488 4.52803 15.6601L6.07861 16.4738C6.71721 16.809 7.23004 17.0781 7.67158 17.2607C8.12884 17.4498 8.54645 17.5625 9 17.5625C9.45355 17.5625 9.87116 17.4498 10.3284 17.2607C10.7699 17.0781 11.2827 16.809 11.9213 16.4739L13.4719 15.6601C14.2557 15.2489 14.8829 14.9197 15.3671 14.5963C15.8688 14.2613 16.2553 13.9085 16.5367 13.4306C16.8171 12.9543 16.9433 12.4386 17.0038 11.8245C17.0625 11.2283 17.0625 10.4951 17.0625 9.57309V9.42691C17.0625 8.50486 17.0625 7.77168 17.0038 7.17554C16.9433 6.56138 16.8171 6.04566 16.5367 5.56938C16.2553 5.09151 15.8688 4.73873 15.3671 4.40368C14.8829 4.08028 14.2557 3.75115 13.4719 3.33988L11.9213 2.52615C11.2828 2.19104 10.7699 1.92191 10.3284 1.73932C9.87116 1.55021 9.45355 1.4375 9 1.4375ZM6.5781 3.53456C7.24539 3.18438 7.713 2.9396 8.10152 2.77892C8.47968 2.62253 8.74534 2.5625 9 2.5625C9.25466 2.5625 9.52032 2.62253 9.89848 2.77892C10.287 2.9396 10.7546 3.18438 11.4219 3.53456L12.9219 4.32172C13.7392 4.75061 14.3134 5.05274 14.7424 5.33924C14.954 5.48059 15.1203 5.61184 15.2546 5.74381L12.7566 6.99281L6.38171 3.63762L6.5781 3.53456ZM5.2085 4.25329L5.0781 4.32172C4.26083 4.75061 3.68665 5.05274 3.25764 5.33924C3.04599 5.48059 2.87967 5.61184 2.7454 5.74381L9 8.87111L11.5179 7.61217L5.36302 4.37277C5.30322 4.34129 5.25144 4.30058 5.2085 4.25329ZM2.20326 6.73053C2.16538 6.89094 2.13675 7.07309 2.1158 7.28583C2.06313 7.82045 2.0625 8.49831 2.0625 9.45613V9.54387C2.0625 10.5017 2.06313 11.1796 2.1158 11.7142C2.16731 12.237 2.26516 12.5752 2.43276 12.8598C2.5994 13.1428 2.84045 13.3822 3.25764 13.6608C3.68665 13.9473 4.26083 14.2494 5.0781 14.6783L6.5781 15.4654C7.24539 15.8156 7.713 16.0604 8.10152 16.2211C8.2242 16.2718 8.33503 16.3124 8.4375 16.3441V9.84764L2.20326 6.73053ZM9.5625 16.3441C9.66496 16.3124 9.7758 16.2718 9.89848 16.2211C10.287 16.0604 10.7546 15.8156 11.4219 15.4654L12.9219 14.6783C13.7392 14.2494 14.3134 13.9473 14.7424 13.6608C15.1595 13.3822 15.4006 13.1428 15.5672 12.8598C15.7348 12.5752 15.8327 12.237 15.8842 11.7142C15.9369 11.1796 15.9375 10.5017 15.9375 9.54387V9.45613C15.9375 8.49831 15.9369 7.82045 15.8842 7.28583C15.8632 7.07309 15.8346 6.89094 15.7967 6.73052L13.3125 7.97264V10.25C13.3125 10.5607 13.0607 10.8125 12.75 10.8125C12.4393 10.8125 12.1875 10.5607 12.1875 10.25V8.53514L9.5625 9.84764V16.3441Z" fill="#221F20"/>
</svg>
