<svg width="18" height="17" viewBox="0 0 18 17" fill="none" xmlns="http://www.w3.org/2000/svg">
<path fill-rule="evenodd" clip-rule="evenodd" d="M3.9375 6.47708V5.5C3.9375 2.70406 6.20406 0.4375 9 0.4375C11.7959 0.4375 14.0625 2.70406 14.0625 5.5V6.47708C14.2326 6.48904 14.393 6.50461 14.5438 6.52489C15.2189 6.61565 15.7873 6.80982 16.2387 7.26126C16.6902 7.7127 16.8843 8.28111 16.9751 8.95619C17.0625 9.60641 17.0625 10.4332 17.0625 11.4588V11.5412C17.0625 12.5668 17.0625 13.3936 16.9751 14.0438C16.8843 14.7189 16.6902 15.2873 16.2387 15.7387C15.7873 16.1902 15.2189 16.3843 14.5438 16.4751C13.8936 16.5625 13.0668 16.5625 12.0412 16.5625H5.95885C4.93316 16.5625 4.10641 16.5625 3.45619 16.4751C2.78111 16.3843 2.2127 16.1902 1.76126 15.7387C1.30983 15.2873 1.11566 14.7189 1.02489 14.0438C0.937473 13.3936 0.937485 12.5669 0.9375 11.5412V11.4588C0.937485 10.4332 0.937473 9.60641 1.02489 8.95619C1.11566 8.28111 1.30983 7.7127 1.76126 7.26126C2.2127 6.80982 2.78111 6.61565 3.45619 6.52489C3.60703 6.50461 3.76738 6.48904 3.9375 6.47708ZM5.0625 5.5C5.0625 3.32538 6.82538 1.5625 9 1.5625C11.1746 1.5625 12.9375 3.32538 12.9375 5.5V6.44008C12.6574 6.43749 12.3588 6.43749 12.0412 6.4375H5.95885C5.64121 6.43749 5.34265 6.43749 5.0625 6.44008V5.5ZM2.55676 8.05676C2.76433 7.84919 3.05576 7.71385 3.60609 7.63986C4.1726 7.56369 4.92344 7.5625 6 7.5625H12C13.0766 7.5625 13.8274 7.56369 14.3939 7.63986C14.9442 7.71385 15.2357 7.84919 15.4432 8.05676C15.6508 8.26433 15.7862 8.55576 15.8601 9.10609C15.9363 9.6726 15.9375 10.4234 15.9375 11.5C15.9375 12.5766 15.9363 13.3274 15.8601 13.8939C15.7862 14.4442 15.6508 14.7357 15.4432 14.9432C15.2357 15.1508 14.9442 15.2861 14.3939 15.3601C13.8274 15.4363 13.0766 15.4375 12 15.4375H6C4.92344 15.4375 4.1726 15.4363 3.60609 15.3601C3.05576 15.2861 2.76433 15.1508 2.55676 14.9432C2.34919 14.7357 2.21385 14.4442 2.13986 13.8939C2.0637 13.3274 2.0625 12.5766 2.0625 11.5C2.0625 10.4234 2.0637 9.6726 2.13986 9.10609C2.21385 8.55576 2.34919 8.26433 2.55676 8.05676Z" fill="#221F20"/>
</svg>
