<svg width="18" height="19" viewBox="0 0 18 19" fill="none" xmlns="http://www.w3.org/2000/svg">
<path d="M9 2.9375C9.31066 2.9375 9.5625 3.18934 9.5625 3.5C9.5625 3.81066 9.31066 4.0625 9 4.0625C5.99695 4.0625 3.5625 6.49695 3.5625 9.5C3.5625 12.503 5.99695 14.9375 9 14.9375C9.31066 14.9375 9.5625 15.1893 9.5625 15.5C9.5625 15.8107 9.31066 16.0625 9 16.0625C5.37563 16.0625 2.4375 13.1244 2.4375 9.5C2.4375 5.87563 5.37563 2.9375 9 2.9375Z" fill="#E64848"/>
<path d="M12.3523 7.64775C12.1326 7.42808 12.1326 7.07192 12.3523 6.85225C12.5719 6.63258 12.9281 6.63258 13.1477 6.85225L15.3977 9.10225C15.6174 9.32192 15.6174 9.67808 15.3977 9.89775L13.1477 12.1477C12.9281 12.3674 12.5719 12.3674 12.3523 12.1477C12.1326 11.9281 12.1326 11.5719 12.3523 11.3523L13.642 10.0625H7.5C7.18934 10.0625 6.9375 9.81066 6.9375 9.5C6.9375 9.18934 7.18934 8.9375 7.5 8.9375H13.642L12.3523 7.64775Z" fill="#E64848"/>
</svg>
