<svg width="22" height="22" viewBox="0 0 22 22" fill="none" xmlns="http://www.w3.org/2000/svg">
<g clip-path="url(#clip0_948_9892)">
<path d="M18.0254 0.0417957C15.3055 0.239452 12.7531 1.06016 10.725 2.38359C9.56055 3.14414 8.18985 4.35586 7.13281 5.56328L6.89649 5.82969L5.2207 5.96289C3.52344 6.09609 3.33008 6.12187 3.03789 6.27227C2.68555 6.44844 2.48359 6.70625 1.34492 8.4293C0.717578 9.37461 0.167578 10.2254 0.116016 10.3199C0.0472656 10.4531 0.0214844 10.5734 0.0214844 10.8184C0.0214844 11.0977 0.0386719 11.1707 0.146094 11.3684C0.296484 11.6348 0.519922 11.8281 0.782031 11.9141C0.885156 11.9484 1.54688 12.0645 2.25586 12.1719C2.96484 12.2793 3.575 12.3781 3.61367 12.391C3.66953 12.4082 3.68242 12.477 3.67813 12.7863C3.67383 13.2461 3.75977 13.5168 4.01758 13.8562C4.11641 13.9937 5.0875 14.9863 6.17031 16.0648C8.28438 18.166 8.31875 18.1918 8.85156 18.2949C8.98047 18.3207 9.19961 18.3293 9.33281 18.3164C9.56485 18.2863 9.57774 18.2906 9.60352 18.3895C9.61641 18.441 9.71094 19.0598 9.81836 19.7559C9.92578 20.452 10.0418 21.1051 10.0762 21.2082C10.1621 21.4703 10.3555 21.6937 10.6219 21.8441C10.8195 21.9516 10.8926 21.9688 11.1719 21.9688C11.4168 21.9688 11.5371 21.943 11.6703 21.8742C11.7691 21.8227 12.6199 21.2684 13.5609 20.6453C15.2883 19.5066 15.5375 19.309 15.718 18.9523C15.8684 18.6559 15.8984 18.4668 16.0273 16.7695L16.1563 15.0938L16.427 14.8574C16.573 14.7285 16.9684 14.3547 17.3078 14.0195C19.5207 11.8539 20.7883 9.67969 21.4844 6.86094C21.8023 5.57187 21.9484 4.45469 21.9871 2.97656C22.0258 1.45117 21.9441 1.04297 21.5102 0.561718C21.2566 0.282421 20.8871 0.093359 20.4746 0.0332031C20.118 -0.0140629 18.7473 -0.0140629 18.0254 0.0417957ZM20.4832 1.36523C20.6766 1.49414 20.6895 1.57148 20.6852 2.73594C20.6809 4.2957 20.5262 5.49023 20.148 6.88672C19.5078 9.26289 18.4121 11.102 16.5 13.0098C15.327 14.1871 14.1109 15.0938 12.7273 15.8285L12.4137 15.9918L9.2082 12.7863L6.00274 9.58086L6.16602 9.26289C6.85352 7.93945 7.80313 6.66328 8.98047 5.49023C9.66797 4.80273 10.1363 4.39453 10.8453 3.86601C12.6715 2.5168 14.9273 1.67461 17.5098 1.39102C18.3477 1.29648 18.468 1.29219 19.4863 1.29648C20.1996 1.30078 20.4102 1.31367 20.4832 1.36523ZM5.6332 7.6043C4.96719 8.66562 4.43008 9.81289 4.09922 10.8699C4.03906 11.0676 4.00469 11.1191 3.93594 11.1191C3.81992 11.1148 1.41367 10.7453 1.39648 10.7238C1.36641 10.6938 3.48047 7.53125 3.5793 7.45391C3.66524 7.38945 3.8543 7.35938 4.62344 7.29492C5.13906 7.25625 5.6375 7.21758 5.72344 7.21328L5.88242 7.20898L5.6332 7.6043ZM8.31016 13.693L11.1375 16.5246L10.7379 16.6578C10.1965 16.834 9.43594 17.0145 9.18672 17.023L8.98047 17.0273L6.97383 15.0164L4.96289 13.0098L4.97149 12.782C4.98008 12.5328 5.2293 11.493 5.37539 11.1062C5.42695 10.973 5.46992 10.8613 5.47422 10.8613C5.47422 10.8613 6.75039 12.1332 8.31016 13.693ZM14.6996 17.2293C14.6523 17.8137 14.5965 18.3293 14.5664 18.3766C14.5234 18.4625 11.2965 20.6281 11.2664 20.5938C11.2449 20.5723 10.8711 18.1703 10.8711 18.0586C10.8711 17.9855 10.957 17.9426 11.4039 17.7922C12.3621 17.4699 13.4578 16.9414 14.3602 16.3742C14.5793 16.2324 14.7641 16.1336 14.7727 16.1465C14.777 16.1637 14.7469 16.6492 14.6996 17.2293Z" fill="#06CEB3"/>
<path d="M14.6523 3.72975C13.0668 3.936 11.8594 5.311 11.8594 6.90514C11.8637 7.85904 12.2074 8.65397 12.9035 9.2942C13.273 9.63795 13.8961 9.96022 14.4117 10.0719C14.8586 10.1665 15.5762 10.1364 16.0059 10.0032C17.0629 9.67232 17.875 8.83014 18.1801 7.74303C18.3004 7.31764 18.3133 6.60865 18.2059 6.17037C17.8922 4.88131 16.818 3.91881 15.4945 3.73404C15.1336 3.68248 15.009 3.68248 14.6523 3.72975ZM15.4086 5.02311C16.4184 5.20787 17.1531 6.23053 16.9813 7.21022C16.8008 8.22428 15.9543 8.89459 14.9316 8.83443C13.9691 8.77428 13.2086 8.00514 13.157 7.05123C13.1055 6.06295 13.7156 5.24654 14.6695 5.04029C15.0004 4.96725 15.0949 4.96725 15.4086 5.02311Z" fill="#06CEB3"/>
<path d="M2.53532 14.776C2.47516 14.7975 1.89938 15.3432 1.25485 15.9877C-0.0170287 17.2596 -0.0514038 17.3025 0.0431275 17.6463C0.0989869 17.8525 0.326721 18.0631 0.532971 18.1018C0.859534 18.1662 0.898206 18.1361 2.12282 16.9244C2.75875 16.2971 3.30016 15.7213 3.33453 15.6439C3.56227 15.1111 3.06383 14.5697 2.53532 14.776Z" fill="#06CEB3"/>
<path d="M4.4043 16.7318C4.21953 16.8263 0.180469 20.8654 0.0816406 21.0544C0.0386719 21.1447 0 21.2736 0 21.3466C0 21.5615 0.150391 21.8064 0.34375 21.9052C0.554297 22.0126 0.730469 22.0126 0.936719 21.9095C1.02266 21.8622 2.03672 20.8826 3.18828 19.7267C5.44414 17.4665 5.37969 17.5396 5.31094 17.1615C5.23789 16.7662 4.76523 16.5427 4.4043 16.7318Z" fill="#06CEB3"/>
<path d="M6.29452 18.6773C6.22577 18.7203 5.65858 19.266 5.03983 19.8891C4.09023 20.8516 3.91405 21.0492 3.88827 21.1824C3.79804 21.6594 4.21913 22.0719 4.6703 21.9516C4.90233 21.8871 7.19257 19.5926 7.23984 19.3777C7.29999 19.0812 7.17108 18.7933 6.91757 18.6601C6.74569 18.5699 6.44921 18.5785 6.29452 18.6773Z" fill="#06CEB3"/>
</g>
<defs>
<clipPath id="clip0_948_9892">
<rect width="22" height="22" fill="white"/>
</clipPath>
</defs>
</svg>
