<svg width="18" height="19" viewBox="0 0 18 19" fill="none" xmlns="http://www.w3.org/2000/svg">
<path fill-rule="evenodd" clip-rule="evenodd" d="M7.45769 2.9375H10.5423C11.9206 2.93749 13.0124 2.93748 13.8668 3.05235C14.7461 3.17057 15.4578 3.41966 16.0191 3.98093C16.5803 4.54221 16.8294 5.25392 16.9476 6.13323C17.0155 6.63788 17.0433 7.22532 17.0546 7.90571C17.0598 7.93637 17.0625 7.96787 17.0625 8C17.0625 8.02644 17.0607 8.05245 17.0571 8.07792C17.0625 8.50222 17.0625 8.96138 17.0625 9.45769V9.54231C17.0625 10.9206 17.0625 12.0124 16.9476 12.8668C16.8294 13.7461 16.5803 14.4578 16.0191 15.0191C15.4578 15.5803 14.7461 15.8294 13.8668 15.9476C13.0124 16.0625 11.9206 16.0625 10.5423 16.0625H7.45769C6.07937 16.0625 4.98764 16.0625 4.13323 15.9476C3.25392 15.8294 2.54221 15.5803 1.98093 15.0191C1.41966 14.4578 1.17057 13.7461 1.05235 12.8668C0.937479 12.0124 0.937488 10.9206 0.9375 9.54231V9.45769C0.937496 8.96137 0.937492 8.50221 0.942852 8.07791C0.939324 8.05244 0.937501 8.02644 0.937501 8C0.937501 7.96787 0.940194 7.93638 0.945367 7.90572C0.956731 7.22533 0.984502 6.63789 1.05235 6.13323C1.17057 5.25392 1.41966 4.54221 1.98093 3.98093C2.54221 3.41966 3.25392 3.17057 4.13323 3.05235C4.98764 2.93748 6.07937 2.93749 7.45769 2.9375ZM2.06399 8.5625C2.06257 8.85379 2.0625 9.16558 2.0625 9.5C2.0625 10.9301 2.0637 11.9461 2.16732 12.7169C2.26877 13.4714 2.45902 13.9062 2.77643 14.2236C3.09384 14.541 3.52857 14.7312 4.28314 14.8327C5.05388 14.9363 6.06988 14.9375 7.5 14.9375H10.5C11.9301 14.9375 12.9461 14.9363 13.7169 14.8327C14.4714 14.7312 14.9062 14.541 15.2236 14.2236C15.541 13.9062 15.7312 13.4714 15.8327 12.7169C15.9363 11.9461 15.9375 10.9301 15.9375 9.5C15.9375 9.16558 15.9374 8.85379 15.936 8.5625H2.06399ZM15.9179 7.4375H2.08206C2.09673 6.99745 2.1224 6.61725 2.16732 6.28314C2.26877 5.52857 2.45902 5.09384 2.77643 4.77643C3.09384 4.45902 3.52857 4.26877 4.28314 4.16732C5.05389 4.0637 6.06989 4.0625 7.5 4.0625H10.5C11.9301 4.0625 12.9461 4.0637 13.7169 4.16732C14.4714 4.26877 14.9062 4.45902 15.2236 4.77643C15.541 5.09384 15.7312 5.52857 15.8327 6.28314C15.8776 6.61725 15.9033 6.99745 15.9179 7.4375ZM3.9375 12.5C3.9375 12.1893 4.18934 11.9375 4.5 11.9375H7.5C7.81066 11.9375 8.0625 12.1893 8.0625 12.5C8.0625 12.8107 7.81066 13.0625 7.5 13.0625H4.5C4.18934 13.0625 3.9375 12.8107 3.9375 12.5ZM8.8125 12.5C8.8125 12.1893 9.06434 11.9375 9.375 11.9375H10.5C10.8107 11.9375 11.0625 12.1893 11.0625 12.5C11.0625 12.8107 10.8107 13.0625 10.5 13.0625H9.375C9.06434 13.0625 8.8125 12.8107 8.8125 12.5Z" fill="#221F20"/>
</svg>
