<svg width="14" height="17" viewBox="0 0 14 17" fill="none" xmlns="http://www.w3.org/2000/svg">
<path fill-rule="evenodd" clip-rule="evenodd" d="M6.95769 0.4375H7.04231C8.42063 0.437488 9.51236 0.437479 10.3668 0.552351C11.2461 0.670572 11.9578 0.91966 12.5191 1.48093C13.0803 2.04221 13.3294 2.75392 13.4476 3.63323C13.5625 4.48764 13.5625 5.57937 13.5625 6.95769V10.0423C13.5625 11.4206 13.5625 12.5124 13.4476 13.3668C13.3294 14.2461 13.0803 14.9578 12.5191 15.5191C11.9578 16.0803 11.2461 16.3294 10.3668 16.4476C9.51236 16.5625 8.42063 16.5625 7.04231 16.5625H6.95769C5.57937 16.5625 4.48764 16.5625 3.63323 16.4476C2.75392 16.3294 2.04221 16.0803 1.48093 15.5191C0.91966 14.9578 0.670572 14.2461 0.552351 13.3668C0.437479 12.5124 0.437488 11.4206 0.4375 10.0423V6.95769C0.437488 5.57937 0.437479 4.48764 0.552351 3.63323C0.670572 2.75392 0.91966 2.04221 1.48093 1.48093C2.04221 0.91966 2.75392 0.670572 3.63323 0.552351C4.48764 0.437479 5.57937 0.437488 6.95769 0.4375ZM3.78314 1.66732C3.02857 1.76877 2.59384 1.95902 2.27643 2.27643C1.95902 2.59384 1.76877 3.02857 1.66732 3.78314C1.5637 4.55388 1.5625 5.56988 1.5625 7V10C1.5625 11.4301 1.5637 12.4461 1.66732 13.2169C1.76877 13.9714 1.95902 14.4062 2.27643 14.7236C2.59384 15.041 3.02857 15.2312 3.78314 15.3327C4.55389 15.4363 5.56989 15.4375 7 15.4375C8.43012 15.4375 9.44612 15.4363 10.2169 15.3327C10.9714 15.2312 11.4062 15.041 11.7236 14.7236C12.041 14.4062 12.2312 13.9714 12.3327 13.2169C12.4363 12.4461 12.4375 11.4301 12.4375 10V7C12.4375 5.56989 12.4363 4.55389 12.3327 3.78314C12.2312 3.02857 12.041 2.59384 11.7236 2.27643C11.4062 1.95902 10.9714 1.76877 10.2169 1.66732C9.44612 1.5637 8.43012 1.5625 7 1.5625C5.56989 1.5625 4.55389 1.5637 3.78314 1.66732ZM4.1875 13.75C4.1875 13.4393 4.43934 13.1875 4.75 13.1875H9.25C9.56066 13.1875 9.8125 13.4393 9.8125 13.75C9.8125 14.0607 9.56066 14.3125 9.25 14.3125H4.75C4.43934 14.3125 4.1875 14.0607 4.1875 13.75Z" fill="#221F20"/>
</svg>
