<svg width="12" height="17" viewBox="0 0 12 17" fill="none" xmlns="http://www.w3.org/2000/svg">
<path fill-rule="evenodd" clip-rule="evenodd" d="M0.75 0.4375C1.06066 0.4375 1.3125 0.68934 1.3125 1V1.81386L2.49269 1.57782C3.83758 1.30884 5.23167 1.43684 6.5051 1.94621L6.81507 2.0702C7.77393 2.45374 8.82928 2.52537 9.83118 2.27489C10.7906 2.03504 11.561 3.07489 11.0522 3.92289L10.0933 5.52106C9.81104 5.99157 9.76578 6.08862 9.75421 6.17706C9.74788 6.22548 9.74788 6.27452 9.75421 6.32294C9.76578 6.41138 9.81104 6.50843 10.0933 6.97894L11.2638 8.92975C11.6913 9.64217 11.309 10.5651 10.503 10.7666L10.4279 10.7853C8.98603 11.1458 7.46723 11.0427 6.08729 10.4907C5.01648 10.0624 3.84422 9.9548 2.71332 10.181L1.3125 10.4611V16C1.3125 16.3107 1.06066 16.5625 0.75 16.5625C0.43934 16.5625 0.1875 16.3107 0.1875 16V1C0.1875 0.68934 0.43934 0.4375 0.75 0.4375ZM1.3125 9.31386L2.49269 9.07782C3.83758 8.80884 5.23167 8.93684 6.5051 9.44621C7.66548 9.91036 8.94261 9.99704 10.1551 9.69392L10.2301 9.67515C10.3032 9.65688 10.3379 9.57317 10.2992 9.50856L9.12866 7.55775C9.11381 7.53298 9.09903 7.50844 9.08437 7.4841C8.87215 7.1317 8.68469 6.82041 8.63871 6.46882C8.61971 6.32356 8.61971 6.17644 8.63871 6.03118C8.68469 5.67959 8.87215 5.36831 9.08436 5.01591C9.09903 4.99156 9.11381 4.96702 9.12866 4.94226L10.0691 3.37494C8.84817 3.67243 7.56454 3.58165 6.39725 3.11473L6.08729 2.99075C5.01648 2.56242 3.84422 2.4548 2.71332 2.68098L1.3125 2.96114V9.31386Z" fill="#221F20"/>
</svg>
