<svg width="18" height="18" viewBox="0 0 18 18" fill="none" xmlns="http://www.w3.org/2000/svg">
<path fill-rule="evenodd" clip-rule="evenodd" d="M14.3726 0.899362C14.4209 0.915476 14.4698 0.931803 14.5193 0.948323L15.6212 1.31562C16.0457 1.4571 16.4178 1.5811 16.713 1.71843C17.0321 1.86689 17.3246 2.05811 17.5482 2.36831C17.7718 2.67852 17.8607 3.01644 17.9006 3.36613C17.9376 3.68961 17.9375 4.08182 17.9375 4.5293V12.0575C17.9375 12.6977 17.9375 13.2377 17.8879 13.6646C17.8363 14.108 17.7208 14.5464 17.3976 14.9001C17.2059 15.1099 16.973 15.2778 16.7133 15.3933C16.2757 15.588 15.8232 15.559 15.3862 15.4677C14.9655 15.3798 14.4533 15.209 13.8459 15.0066L13.8068 14.9935C12.7796 14.6511 12.4277 14.5445 12.086 14.5561C11.9498 14.5608 11.8145 14.5789 11.6819 14.6102C11.3491 14.6889 11.0376 14.8844 10.1367 15.485L8.86954 16.3298C8.82607 16.3588 8.78319 16.3874 8.74087 16.4157C7.76782 17.0651 7.09108 17.5168 6.29994 17.6228C5.50879 17.7287 4.73704 17.471 3.62738 17.1004C3.57912 17.0843 3.53023 17.068 3.48067 17.0515L2.37877 16.6842C1.95425 16.5427 1.58217 16.4187 1.28698 16.2814C0.967856 16.1329 0.675396 15.9417 0.451816 15.6315C0.228235 15.3213 0.139307 14.9834 0.0993828 14.6337C0.0624521 14.3102 0.0624752 13.918 0.0625014 13.4705L0.0625018 5.94231C0.0624794 5.30207 0.0624604 4.76211 0.112094 4.33525C0.163658 3.89178 0.279244 3.45337 0.602383 3.09971C0.794063 2.88993 1.02702 2.72202 1.28666 2.60651C1.72435 2.41179 2.17682 2.44078 2.61384 2.5321C3.03449 2.62 3.54672 2.79076 4.1541 2.99324L4.19317 3.00627C5.22036 3.34867 5.57234 3.45534 5.91405 3.44367C6.0502 3.43902 6.18555 3.42089 6.31813 3.38956C6.65087 3.3109 6.96238 3.11538 7.86328 2.51478L9.13046 1.66999C9.17393 1.64101 9.2168 1.61239 9.25912 1.58415C10.2322 0.934667 10.9089 0.482966 11.7001 0.377017C12.4912 0.271069 13.263 0.528792 14.3726 0.899362ZM12.4375 1.76322V13.1976C12.9286 13.2508 13.4456 13.4234 14.127 13.6508C14.1647 13.6634 14.2029 13.6762 14.2416 13.6891C14.8986 13.9081 15.3345 14.0522 15.6674 14.1218C15.993 14.1898 16.1046 14.1592 16.1545 14.137C16.241 14.0985 16.3186 14.0425 16.3825 13.9726C16.4193 13.9323 16.4837 13.8361 16.5221 13.5057C16.5614 13.1679 16.5625 12.7088 16.5625 12.0163V4.56532C16.5625 4.07118 16.5615 3.7583 16.5345 3.5221C16.5095 3.30346 16.4687 3.22218 16.4327 3.17229C16.3968 3.1224 16.3326 3.05795 16.1331 2.96513C15.9175 2.86485 15.621 2.76493 15.1522 2.60866L14.0845 2.25276C13.272 1.98193 12.79 1.82783 12.4375 1.76322ZM11.0625 13.3629V2.06382C10.7772 2.22866 10.4114 2.4686 9.89318 2.81406L8.626 3.65884C8.59202 3.6815 8.55851 3.70386 8.52543 3.72593C7.89452 4.14693 7.42421 4.46077 6.9375 4.63693V15.936C7.22278 15.7711 7.58863 15.5312 8.10683 15.1857L9.37401 14.341C9.40798 14.3183 9.44149 14.2959 9.47456 14.2739C10.1055 13.8529 10.5758 13.539 11.0625 13.3629ZM5.5625 16.2366V4.80225C5.07145 4.74902 4.55436 4.57641 3.87302 4.34897C3.83531 4.33638 3.7971 4.32362 3.75836 4.31071C3.10144 4.09174 2.66555 3.9476 2.33259 3.87803C2.00702 3.81 1.89537 3.84064 1.84555 3.8628C1.75901 3.9013 1.68136 3.95727 1.61746 4.0272C1.58068 4.06746 1.51631 4.16368 1.47789 4.49406C1.43861 4.83193 1.4375 5.29103 1.4375 5.98349V13.4345C1.4375 13.9286 1.43854 14.2415 1.46551 14.4777C1.49047 14.6963 1.53131 14.7776 1.56727 14.8275C1.60324 14.8774 1.66743 14.9419 1.86695 15.0347C2.08251 15.135 2.379 15.2349 2.84778 15.3911L3.91549 15.747C4.72797 16.0179 5.21002 16.172 5.5625 16.2366Z" fill="#BDBCBC"/>
</svg>
