<svg width="20" height="20" viewBox="0 0 20 20" fill="none" xmlns="http://www.w3.org/2000/svg">
<path fill-rule="evenodd" clip-rule="evenodd" d="M9.99999 6.56242C8.10151 6.56242 6.56249 8.10144 6.56249 9.99992C6.56249 11.8984 8.10151 13.4374 9.99999 13.4374C11.8985 13.4374 13.4375 11.8984 13.4375 9.99992C13.4375 8.10144 11.8985 6.56242 9.99999 6.56242ZM7.93749 9.99992C7.93749 8.86083 8.86091 7.93742 9.99999 7.93742C11.1391 7.93742 12.0625 8.86083 12.0625 9.99992C12.0625 11.139 11.1391 12.0624 9.99999 12.0624C8.86091 12.0624 7.93749 11.139 7.93749 9.99992Z" fill="#BDBCBC"/>
<path fill-rule="evenodd" clip-rule="evenodd" d="M9.97684 0.145752C9.56941 0.145745 9.22929 0.14574 8.95006 0.164791C8.65939 0.184624 8.38482 0.22738 8.11863 0.33764C7.50096 0.593489 7.01022 1.08423 6.75437 1.7019C6.62117 2.02347 6.5851 2.36236 6.57133 2.73072C6.56025 3.02683 6.41081 3.27389 6.19028 3.40121C5.96974 3.52854 5.68107 3.53442 5.4191 3.39596C5.0932 3.22371 4.78167 3.0855 4.43659 3.04007C3.77374 2.9528 3.10338 3.13242 2.57297 3.53942C2.34438 3.71482 2.17007 3.93122 2.00756 4.17304C1.85145 4.40533 1.68139 4.69989 1.47769 5.05273L1.45454 5.09283C1.25082 5.44566 1.08076 5.74021 0.957642 5.99155C0.82948 6.2532 0.729226 6.51236 0.691618 6.79801C0.604353 7.46086 0.783976 8.13122 1.19097 8.66163C1.40283 8.93773 1.67824 9.1384 1.99031 9.33448C2.24128 9.49217 2.38054 9.74519 2.38053 9.9999C2.38052 10.2546 2.24125 10.5076 1.99032 10.6652C1.67821 10.8613 1.40276 11.062 1.19088 11.3381C0.783887 11.8686 0.604263 12.5389 0.691528 13.2018C0.729136 13.4874 0.829391 13.7466 0.957553 14.0082C1.08067 14.2596 1.25073 14.5541 1.45444 14.9069L1.47759 14.947C1.6813 15.2999 1.85136 15.5944 2.00747 15.8267C2.16998 16.0686 2.34429 16.285 2.57288 16.4604C3.10329 16.8673 3.77365 17.047 4.4365 16.9597C4.78156 16.9143 5.09307 16.7761 5.41895 16.6038C5.68096 16.4654 5.96967 16.4713 6.19023 16.5986C6.4108 16.7259 6.56025 16.973 6.57133 17.2692C6.5851 17.6375 6.62118 17.9764 6.75437 18.2979C7.01022 18.9156 7.50096 19.4063 8.11863 19.6622C8.38482 19.7725 8.65939 19.8152 8.95006 19.835C9.22929 19.8541 9.56941 19.8541 9.97683 19.8541H10.0231C10.4306 19.8541 10.7707 19.8541 11.0499 19.835C11.3406 19.8152 11.6151 19.7725 11.8813 19.6622C12.499 19.4063 12.9897 18.9156 13.2456 18.2979C13.3788 17.9764 13.4149 17.6375 13.4286 17.2691C13.4397 16.973 13.5891 16.7259 13.8097 16.5986C14.0302 16.4712 14.3189 16.4653 14.581 16.6038C14.9068 16.776 15.2183 16.9142 15.5634 16.9596C16.2262 17.0469 16.8966 16.8673 17.427 16.4603C17.6556 16.2849 17.8299 16.0685 17.9924 15.8267C18.1485 15.5944 18.3186 15.2999 18.5222 14.947L18.5454 14.9069C18.7491 14.5541 18.9192 14.2595 19.0423 14.0082C19.1705 13.7465 19.2707 13.4874 19.3083 13.2017C19.3956 12.5389 19.216 11.8685 18.809 11.3381C18.5971 11.062 18.3217 10.8613 18.0096 10.6652C17.7587 10.5075 17.6194 10.2546 17.6194 9.99987C17.6194 9.74522 17.7587 9.49228 18.0096 9.33464C18.3217 9.13853 18.5972 8.93783 18.8091 8.66169C19.2161 8.13129 19.3957 7.46092 19.3084 6.79808C19.2708 6.51242 19.1706 6.25326 19.0424 5.99161C18.9193 5.74028 18.7493 5.44576 18.5456 5.09296L18.5224 5.05283C18.3187 4.69998 18.1486 4.4054 17.9925 4.1731C17.83 3.93129 17.6557 3.71488 17.4271 3.53948C16.8967 3.13249 16.2263 2.95286 15.5635 3.04013C15.2184 3.08556 14.9069 3.22375 14.581 3.39599C14.319 3.53447 14.0303 3.52858 13.8097 3.40124C13.5892 3.2739 13.4397 3.02681 13.4286 2.73067C13.4149 2.36233 13.3788 2.02345 13.2456 1.7019C12.9897 1.08423 12.499 0.593489 11.8813 0.33764C11.6151 0.22738 11.3406 0.184624 11.0499 0.164791C10.7707 0.14574 10.4306 0.145745 10.0231 0.145752H9.97684ZM8.64482 1.60797C8.71555 1.57868 8.823 1.55166 9.04366 1.5366C9.2705 1.52112 9.56346 1.52075 9.99998 1.52075C10.4365 1.52075 10.7295 1.52112 10.9563 1.5366C11.177 1.55166 11.2844 1.57868 11.3551 1.60797C11.6359 1.72427 11.859 1.94733 11.9753 2.22809C12.0119 2.31666 12.0424 2.45472 12.0546 2.78206C12.0818 3.5084 12.4567 4.20777 13.1222 4.59203C13.7878 4.97629 14.5809 4.95129 15.2235 4.61164C15.5131 4.45857 15.6479 4.41588 15.7429 4.40337C16.0442 4.3637 16.3489 4.44535 16.59 4.63035C16.6508 4.67695 16.7279 4.75649 16.8513 4.94006C16.9781 5.12878 17.1249 5.3823 17.3432 5.76034C17.5614 6.13837 17.7076 6.39227 17.8076 6.59646C17.9049 6.79509 17.9352 6.90165 17.9452 6.97755C17.9849 7.27884 17.9032 7.58355 17.7182 7.82465C17.6599 7.90071 17.5555 7.99608 17.2781 8.17038C16.6627 8.55704 16.2445 9.23134 16.2444 9.9998C16.2444 10.7683 16.6626 11.4427 17.2781 11.8294C17.5554 12.0037 17.6598 12.0991 17.7181 12.1751C17.9031 12.4162 17.9848 12.7209 17.9451 13.0222C17.9351 13.0981 17.9048 13.2047 17.8075 13.4033C17.7075 13.6075 17.5613 13.8614 17.3431 14.2394C17.1248 14.6175 16.978 14.871 16.8512 15.0597C16.7278 15.2433 16.6507 15.3228 16.59 15.3694C16.3489 15.5544 16.0441 15.6361 15.7429 15.5964C15.6478 15.5839 15.5131 15.5412 15.2235 15.3882C14.5808 15.0485 13.7877 15.0235 13.1221 15.4078C12.4566 15.7921 12.0818 16.4914 12.0546 17.2177C12.0424 17.5451 12.0119 17.6832 11.9753 17.7717C11.859 18.0525 11.6359 18.2756 11.3551 18.3919C11.2844 18.4212 11.177 18.4482 10.9563 18.4632C10.7295 18.4787 10.4365 18.4791 9.99998 18.4791C9.56346 18.4791 9.2705 18.4787 9.04366 18.4632C8.823 18.4482 8.71555 18.4212 8.64482 18.3919C8.36406 18.2756 8.141 18.0525 8.0247 17.7717C7.98802 17.6832 7.95761 17.5451 7.94537 17.2178C7.9182 16.4914 7.54329 15.7921 6.87773 15.4078C6.21217 15.0236 5.41906 15.0486 4.77644 15.3882C4.48684 15.5413 4.35206 15.584 4.25702 15.5965C3.95573 15.6361 3.65102 15.5545 3.40992 15.3695C3.34919 15.3229 3.27207 15.2434 3.14869 15.0598C3.02187 14.8711 2.87507 14.6175 2.65681 14.2395C2.43855 13.8615 2.29239 13.6076 2.19237 13.4034C2.09508 13.2047 2.06476 13.0982 2.05476 13.0223C2.0151 12.721 2.09675 12.4163 2.28175 12.1752C2.3401 12.0991 2.44446 12.0038 2.72184 11.8295C3.33728 11.4428 3.75549 10.7685 3.75553 9.99998C3.75557 9.23139 3.33734 8.55697 2.72185 8.17023C2.44453 7.99599 2.34019 7.90063 2.28183 7.82459C2.09684 7.58349 2.01519 7.27878 2.05485 6.97749C2.06485 6.90159 2.09517 6.79503 2.19246 6.5964C2.29248 6.39221 2.43864 6.13831 2.6569 5.76027C2.87516 5.38224 3.02196 5.12871 3.14878 4.94C3.27216 4.75643 3.34928 4.67688 3.41001 4.63028C3.65111 4.44528 3.95582 4.36364 4.25711 4.4033C4.35216 4.41582 4.48694 4.45852 4.77658 4.6116C5.41916 4.95124 6.21224 4.97624 6.87777 4.592C7.54331 4.20776 7.9182 3.50842 7.94537 2.7821C7.95761 2.45473 7.98802 2.31666 8.0247 2.22809C8.141 1.94733 8.36406 1.72427 8.64482 1.60797Z" fill="#BDBCBC"/>
</svg>
