<svg width="22" height="22" viewBox="0 0 22 22" fill="none" xmlns="http://www.w3.org/2000/svg">
<path d="M10.3125 16.4999C10.3125 16.8796 10.6203 17.1874 11 17.1874C11.3797 17.1874 11.6875 16.8796 11.6875 16.4999V13.7499C11.6875 13.3702 11.3797 13.0624 11 13.0624C10.6203 13.0624 10.3125 13.3702 10.3125 13.7499V16.4999Z" fill="#FF671D"/>
<path fill-rule="evenodd" clip-rule="evenodd" d="M11 1.14575C10.3509 1.14575 9.76116 1.33167 9.12135 1.64281C8.50287 1.94357 7.7884 2.387 6.89596 2.94088L5.0016 4.11658C4.15717 4.64064 3.481 5.06029 2.95984 5.45941C2.42015 5.87272 2.00563 6.29365 1.70621 6.84066C1.40742 7.38653 1.27286 7.96735 1.20835 8.6539C1.14583 9.31925 1.14584 10.1329 1.14584 11.1532V12.6315C1.14583 14.3767 1.14582 15.7543 1.28582 16.8314C1.42943 17.9363 1.73119 18.8283 2.413 19.5336C3.09796 20.2421 3.9696 20.5586 5.04865 20.7087C6.09446 20.8541 7.43011 20.8541 9.11337 20.8541H12.8866C14.5699 20.8541 15.9056 20.8541 16.9514 20.7087C18.0304 20.5586 18.9021 20.2421 19.587 19.5336C20.2688 18.8283 20.5706 17.9363 20.7142 16.8314C20.8542 15.7543 20.8542 14.3767 20.8542 12.6315V11.1532C20.8542 10.1329 20.8542 9.31923 20.7917 8.6539C20.7272 7.96735 20.5926 7.38653 20.2938 6.84066C19.9944 6.29365 19.5799 5.87272 19.0402 5.45941C18.519 5.06029 17.8429 4.64065 16.9984 4.11659L15.104 2.94087C14.2116 2.387 13.4971 1.94357 12.8787 1.6428C12.2389 1.33167 11.6491 1.14575 11 1.14575ZM7.58958 4.12869C8.52069 3.55082 9.17538 3.14549 9.72267 2.87935C10.2559 2.62005 10.6335 2.52075 11 2.52075C11.3665 2.52075 11.7441 2.62005 12.2773 2.87935C12.8246 3.14549 13.4793 3.55082 14.4104 4.12869L16.2438 5.26651C17.1245 5.81314 17.7429 6.19782 18.2042 6.55106C18.653 6.89476 18.9112 7.17839 19.0877 7.50087C19.2648 7.82449 19.3682 8.20285 19.4227 8.78253C19.4785 9.37613 19.4792 10.1252 19.4792 11.1868V12.5811C19.4792 14.3878 19.4778 15.676 19.3507 16.6542C19.2258 17.6149 18.9906 18.1723 18.5985 18.5779C18.2095 18.9802 17.6799 19.2191 16.762 19.3468C15.8218 19.4775 14.5819 19.4791 12.8333 19.4791H9.16668C7.41811 19.4791 6.17819 19.4775 5.23805 19.3468C4.32013 19.2191 3.79055 18.9802 3.40157 18.5779C3.00944 18.1723 2.77422 17.6149 2.64935 16.6542C2.52221 15.676 2.52084 14.3878 2.52084 12.5811V11.1868C2.52084 10.1252 2.52154 9.37612 2.57732 8.78253C2.63179 8.20285 2.7352 7.82449 2.91234 7.50087C3.08886 7.17839 3.34706 6.89476 3.79585 6.55106C4.2571 6.19782 4.87548 5.81314 5.75624 5.26651L7.58958 4.12869Z" fill="#FF671D"/>
<path d="M10.3125 16.4999C10.3125 16.8796 10.6203 17.1874 11 17.1874C11.3797 17.1874 11.6875 16.8796 11.6875 16.4999V13.7499C11.6875 13.3702 11.3797 13.0624 11 13.0624C10.6203 13.0624 10.3125 13.3702 10.3125 13.7499V16.4999Z" stroke="#FF671D"/>
<path fill-rule="evenodd" clip-rule="evenodd" d="M11 1.14575C10.3509 1.14575 9.76116 1.33167 9.12135 1.64281C8.50287 1.94357 7.7884 2.387 6.89596 2.94088L5.0016 4.11658C4.15717 4.64064 3.481 5.06029 2.95984 5.45941C2.42015 5.87272 2.00563 6.29365 1.70621 6.84066C1.40742 7.38653 1.27286 7.96735 1.20835 8.6539C1.14583 9.31925 1.14584 10.1329 1.14584 11.1532V12.6315C1.14583 14.3767 1.14582 15.7543 1.28582 16.8314C1.42943 17.9363 1.73119 18.8283 2.413 19.5336C3.09796 20.2421 3.9696 20.5586 5.04865 20.7087C6.09446 20.8541 7.43011 20.8541 9.11337 20.8541H12.8866C14.5699 20.8541 15.9056 20.8541 16.9514 20.7087C18.0304 20.5586 18.9021 20.2421 19.587 19.5336C20.2688 18.8283 20.5706 17.9363 20.7142 16.8314C20.8542 15.7543 20.8542 14.3767 20.8542 12.6315V11.1532C20.8542 10.1329 20.8542 9.31923 20.7917 8.6539C20.7272 7.96735 20.5926 7.38653 20.2938 6.84066C19.9944 6.29365 19.5799 5.87272 19.0402 5.45941C18.519 5.06029 17.8429 4.64065 16.9984 4.11659L15.104 2.94087C14.2116 2.387 13.4971 1.94357 12.8787 1.6428C12.2389 1.33167 11.6491 1.14575 11 1.14575ZM7.58958 4.12869C8.52069 3.55082 9.17538 3.14549 9.72267 2.87935C10.2559 2.62005 10.6335 2.52075 11 2.52075C11.3665 2.52075 11.7441 2.62005 12.2773 2.87935C12.8246 3.14549 13.4793 3.55082 14.4104 4.12869L16.2438 5.26651C17.1245 5.81314 17.7429 6.19782 18.2042 6.55106C18.653 6.89476 18.9112 7.17839 19.0877 7.50087C19.2648 7.82449 19.3682 8.20285 19.4227 8.78253C19.4785 9.37613 19.4792 10.1252 19.4792 11.1868V12.5811C19.4792 14.3878 19.4778 15.676 19.3507 16.6542C19.2258 17.6149 18.9906 18.1723 18.5985 18.5779C18.2095 18.9802 17.6799 19.2191 16.762 19.3468C15.8218 19.4775 14.5819 19.4791 12.8333 19.4791H9.16668C7.41811 19.4791 6.17819 19.4775 5.23805 19.3468C4.32013 19.2191 3.79055 18.9802 3.40157 18.5779C3.00944 18.1723 2.77422 17.6149 2.64935 16.6542C2.52221 15.676 2.52084 14.3878 2.52084 12.5811V11.1868C2.52084 10.1252 2.52154 9.37612 2.57732 8.78253C2.63179 8.20285 2.7352 7.82449 2.91234 7.50087C3.08886 7.17839 3.34706 6.89476 3.79585 6.55106C4.2571 6.19782 4.87548 5.81314 5.75624 5.26651L7.58958 4.12869Z" stroke="#FF671D"/>
</svg>
