<svg width="11" height="14" viewBox="0 0 11 14" fill="none" xmlns="http://www.w3.org/2000/svg">
<path fill-rule="evenodd" clip-rule="evenodd" d="M6.4746 1.39464C7.36212 0.507125 8.80107 0.507125 9.68858 1.39464C10.5761 2.28216 10.5761 3.72111 9.68858 4.60862L5.25874 9.03846C5.00908 9.28816 4.8566 9.44064 4.68667 9.57319C4.48645 9.72936 4.26981 9.86324 4.0406 9.97249C3.84604 10.0652 3.64147 10.1334 3.30648 10.245L1.74743 10.7647L1.37313 10.8895C1.03809 11.0012 0.66871 10.914 0.418988 10.6642C0.169265 10.4145 0.0820671 10.0451 0.193746 9.71009L0.838194 7.77675C0.949837 7.44176 1.01802 7.23718 1.11074 7.04263C1.21998 6.81341 1.35387 6.59677 1.51003 6.39655C1.64258 6.22662 1.79507 6.07414 2.04477 5.82447L6.4746 1.39464ZM1.72725 9.84911L1.23412 9.35598L1.65903 8.08124C1.78274 7.71009 1.83384 7.55919 1.90062 7.41907C1.98252 7.24722 2.0829 7.08481 2.19998 6.9347C2.29544 6.81231 2.40756 6.69912 2.6842 6.42248L6.1206 2.98608C6.26244 3.34191 6.50244 3.77137 6.90715 4.17608C7.31185 4.58079 7.74131 4.82078 8.09714 4.96262L4.66074 8.39903C4.38411 8.67566 4.27092 8.78778 4.14853 8.88324C3.99842 9.00032 3.836 9.1007 3.66415 9.1826C3.52403 9.24938 3.37313 9.30048 3.00199 9.42419L1.72725 9.84911ZM8.79436 4.26541C8.72213 4.24955 8.63181 4.22569 8.52912 4.19006C8.24678 4.09211 7.87538 3.90688 7.52586 3.55736C7.17635 3.20784 6.99112 2.83644 6.89316 2.5541C6.85753 2.45141 6.83367 2.3611 6.81782 2.28886L7.09332 2.01336C7.63913 1.46755 8.52406 1.46755 9.06986 2.01336C9.61567 2.55917 9.61567 3.4441 9.06986 3.9899L8.79436 4.26541ZM0.145886 12.8332C0.145886 12.5915 0.341761 12.3957 0.583386 12.3957H9.91672V13.2707H0.583386C0.341761 13.2707 0.145886 13.0748 0.145886 12.8332Z" fill="#FF671D"/>
</svg>
