<svg width="166" height="122" viewBox="0 0 166 122" fill="none" xmlns="http://www.w3.org/2000/svg">
<path d="M89.4899 37.8341C89.8059 35.8939 90.5167 34.5043 90.9117 33.7701C91.9648 31.7251 93.2812 30.3355 94.1764 29.5227C94.1764 29.5227 98.3362 25.7996 104.023 25.6161C104.26 25.6161 104.471 25.6161 104.602 25.6161C106.972 25.6161 108.789 26.1929 109.657 26.5075C112.501 27.53 114.949 29.3654 116.766 31.8299C117.977 33.4293 118.872 35.2908 119.425 37.3097C119.82 38.9877 119.767 40.3511 119.662 41.2163C119.373 43.6022 118.346 45.3589 117.056 47.6137C116.424 48.6887 115.897 49.449 115.213 50.4454C113.949 52.2545 112.843 53.6441 112.238 54.3782C112.106 54.5355 111.5 55.2959 110.658 56.2922C110.447 56.5282 109.684 57.4196 108.657 58.547C108.499 58.7305 108.104 59.15 107.577 59.7006C107.393 59.8842 106.972 60.3299 106.445 60.8805C105.734 61.5884 105.182 62.1652 105.05 62.2963C103.76 63.581 101.443 65.2066 100.521 65.8359C99.8106 66.2816 99.0998 66.7011 98.3626 67.1206C97.4937 67.5925 96.5986 68.0382 95.6771 68.4315C95.5191 68.5102 95.3611 68.5888 95.2032 68.6413C94.229 69.0608 93.2285 69.4278 92.2281 69.7425C91.6488 69.926 91.096 70.0833 90.4904 70.2406C90.1218 70.3455 89.7269 70.4242 89.3583 70.529C88.3315 70.765 86.8571 71.1059 85.0141 71.2632C84.2243 71.3418 83.2765 71.368 82.1443 71.3418C81.5388 71.3156 80.9069 71.2632 80.3014 71.1845C78.6163 71.001 77.2209 71.001 76.1415 71.0534C75.9835 71.0534 75.8255 71.0796 75.7202 71.0796C74.9041 71.1321 73.0874 71.237 71.2707 71.604C69.691 71.9186 68.1377 72.3906 66.6633 72.9936C63.9515 74.0948 62.0822 75.3795 61.108 76.0612C59.6073 77.0838 48.4704 84.661 43.4154 84.2677C42.2043 84.1629 41.2038 83.6909 41.1511 83.6647C40.7826 83.4812 38.6763 82.4586 37.9128 80.3087C37.6758 79.6532 37.9128 79.8368 37.4652 77.6081C37.2809 76.7167 37.1229 76.0088 36.7807 75.1698C36.649 74.8552 36.6227 74.8289 36.2541 74.0686C35.5169 72.4955 35.4906 72.2595 34.7534 70.7912C33.7529 68.8248 34.1478 69.6376 33.7529 68.8248C33.5686 68.484 33.3843 67.9596 32.8841 67.4614C32.6734 67.2517 32.4628 67.1206 32.3312 67.0157C32.1995 66.9371 31.9362 66.806 31.594 66.8322C31.3044 66.8584 31.0937 66.9895 30.9358 67.0944C30.6988 67.2517 30.5408 67.409 30.3302 67.6187C30.0933 67.8809 30.0669 67.9596 29.7773 68.3004C29.7773 68.3004 29.5667 68.5364 29.2771 68.851C29.0928 69.0346 27.6711 70.4242 25.2225 70.8437C24.4063 70.9748 24.38 70.8437 21.5366 70.8175C20.4571 70.8175 19.5619 70.8175 18.9827 70.8175C18.1402 70.8175 17.0344 70.8699 15.8233 71.1321C14.4806 71.4205 13.4274 71.8662 12.6902 72.2071C11.9004 72.5741 11.2948 72.9674 10.8736 73.2558C10.2944 73.6491 9.24124 74.4357 8.10912 75.7728C7.21396 76.8216 7.08232 77.2411 5.21301 80.6233C3.65964 83.4025 2.89612 84.7921 2.58018 85.2378C1.71134 86.4701 1.18478 87.0207 0.868837 88.1481C0.473912 89.6164 0.789852 90.8749 0.947822 91.5304C1.97463 95.5943 6.26614 99.2387 10.9526 100.681C12.6376 101.205 14.0856 101.336 14.9545 101.362C15.1651 101.362 15.3757 101.362 15.5864 101.389C18.7458 101.415 20.1148 101.415 20.6414 101.389C20.7467 101.389 21.0627 101.389 21.5102 101.389C21.8788 101.415 22.2211 101.441 22.537 101.467C22.616 101.467 22.7477 101.494 22.9056 101.52C25.4332 102.044 26.8549 104.011 27.0128 104.247C27.2498 104.587 27.6447 105.243 27.9343 106.134C27.9343 106.134 28.224 107.078 28.224 108.048C28.224 110.696 24.1167 115.075 20.2991 116.438C19.1933 116.832 18.1665 117.225 17.0607 117.697C16.8238 117.775 15.718 118.143 15.3231 118.929C15.2178 119.139 15.1651 119.375 15.1651 119.375C15.1125 119.558 15.0071 120.109 15.2441 120.607C15.639 121.446 16.6658 121.577 16.8238 121.603C17.0344 121.63 17.2187 121.63 17.3504 121.63C19.246 121.472 20.773 121.263 21.8525 121.079C25.0382 120.528 27.6974 119.742 31.436 118.641C32.0942 118.431 32.9894 118.195 33.9635 117.88C42.7835 115.101 45.8639 112.558 53.8414 110.46C54.1837 110.382 55.6054 109.988 57.501 109.621C62.0295 108.704 66.7423 108.232 71.534 108.258C72.1396 108.258 72.7715 108.284 72.7715 108.284C73.0347 108.284 73.8246 108.31 74.8777 108.363C75.2463 108.389 75.7202 108.415 76.3521 108.442C76.4574 108.442 76.905 108.494 77.5632 108.546C78.1161 108.599 78.827 108.651 79.6695 108.756C80.9332 108.914 82.039 109.071 83.0132 109.228C83.4871 109.307 84.6192 109.517 86.0673 109.805C86.5675 109.91 87.0677 110.015 87.568 110.146C88.1735 110.277 88.7791 110.434 89.3846 110.592C90.78 110.959 92.1228 111.378 93.4918 111.824C94.0711 112.007 94.624 112.217 95.2032 112.427C95.7824 112.637 96.5196 112.899 97.4674 113.292C97.7044 113.397 98.3889 113.659 99.3367 114.079C102.312 115.39 104.576 116.648 105.103 116.937C105.787 117.304 106.472 117.697 107.13 118.116C107.498 118.326 108.604 119.322 108.789 119.427C109.763 120.083 110.421 120.843 111.158 121.184C111.474 121.315 111.764 121.394 111.764 121.394C111.974 121.446 112.159 121.446 112.369 121.446C113.975 121.446 115.265 120.188 115.265 118.588C115.265 118.3 115.239 118.038 115.16 117.802C115.081 117.566 114.923 117.225 114.686 116.858C113.765 115.494 112.343 115.049 111.132 114.551C111.132 114.551 108.367 113.004 106.05 111.483C104.207 110.251 102.522 108.756 101.101 107.052C100.232 106.029 99.442 104.928 98.7575 103.748C98.5995 103.486 98.4942 103.303 98.3889 103.119C97.2041 100.995 96.5722 99.868 96.2037 98.2949C96.2037 98.2949 95.8087 96.6431 95.993 95.1486C96.0194 94.9126 96.072 94.6504 96.072 94.6504C96.1773 93.995 96.3616 93.523 96.4406 93.2346C96.5459 92.9724 96.5986 92.7889 96.6512 92.7365C96.7302 92.5791 96.7829 92.448 96.8619 92.317C96.9145 92.2121 96.9935 92.081 97.0725 91.9499C97.1515 91.8188 97.2305 91.6877 97.3358 91.5566C97.4411 91.4255 97.5991 91.1633 97.8097 90.9011C99.9949 88.0957 103.339 87.2567 104.708 86.9421C111.132 85.4214 123.848 83.455 131.721 81.7245C133.511 81.3312 136.275 80.6758 139.619 79.1813C140.462 78.8142 143.516 77.6868 146.807 75.0125C151.124 71.4991 154.152 68.7724 156.943 64.8395C162.13 58.0751 165.236 49.6326 165.263 40.4822C165.289 33.0885 163.314 26.1667 159.839 20.1888C152.783 8.20672 139.645 0.0526391 124.559 0.000201309C117.187 -0.0260176 110.237 1.91418 104.26 5.29642C104.26 5.29642 102.996 6.00433 101.785 6.81712C99.0208 8.65244 86.0146 18.4059 84.2243 33.2195C84.119 34.0061 84.0663 34.7402 84.0136 35.4219C83.7767 38.778 84.3822 42.134 85.725 45.2278C86.3569 46.6698 87.1994 48.3216 88.2788 49.921C88.9634 50.9173 89.8059 52.0972 89.8059 52.0972C89.9902 52.3593 90.2534 52.7002 90.5431 53.0673C90.701 53.277 91.1486 53.8538 91.7542 54.6142C91.9385 54.8501 92.544 55.5843 93.3339 56.5282C94.0184 57.3409 94.0974 57.4458 94.3343 57.6818C95.0189 58.3373 95.4138 58.7305 96.0457 58.7568C96.7829 58.8092 97.3358 58.3373 97.4937 58.1799C97.678 57.9964 98.2046 57.4196 98.1256 56.7117C98.0993 56.4495 97.994 56.2922 97.7833 55.9513C97.4411 55.4007 97.0988 55.1385 96.7302 54.6666C96.2563 54.0898 95.914 53.6441 95.8087 53.4868C95.8087 53.4868 95.2558 52.7526 94.7556 52.0709C93.0969 49.8423 91.8595 47.7448 91.8595 47.7448C91.2803 46.9583 90.5431 45.6997 89.9902 44.048C89.016 41.0066 89.3846 38.5158 89.4899 37.8341ZM14.3226 88.4103C11.3475 89.0658 8.76733 86.4964 9.42554 83.5598C9.76781 82.0654 10.9526 80.8855 12.4533 80.5447C15.4284 79.8892 18.0086 82.4586 17.3504 85.3952C17.0344 86.8896 15.8233 88.0957 14.3226 88.4103ZM34.3058 77.9228C34.3058 77.9228 29.3824 73.4656 29.2508 73.1772C29.1191 72.8887 29.1454 71.8662 29.9879 70.9748C29.9879 70.9748 31.4887 69.1919 32.8841 71.4205C34.2531 73.6491 35.0693 76.5332 35.1746 77.7392C35.2799 78.9715 34.3058 77.9228 34.3058 77.9228Z" fill="#FF671D"/>
</svg>
