<svg width="12" height="12" viewBox="0 0 12 12" fill="none" xmlns="http://www.w3.org/2000/svg">
<path fill-rule="evenodd" clip-rule="evenodd" d="M5.26375 0.312511H7.23626C7.36249 0.312431 7.47246 0.31236 7.57631 0.328943C7.98656 0.394455 8.34158 0.650335 8.53346 1.01882C8.58203 1.11209 8.61674 1.21644 8.65658 1.33622L8.72169 1.53157C8.73271 1.56464 8.73587 1.574 8.73854 1.58138C8.84069 1.86378 9.10554 2.05468 9.40575 2.06229C9.41365 2.06249 9.42331 2.06252 9.45834 2.06252H11.2083C11.45 2.06252 11.6458 2.2584 11.6458 2.50002C11.6458 2.74165 11.45 2.93752 11.2083 2.93752H1.29163C1.05 2.93752 0.854126 2.74165 0.854126 2.50002C0.854126 2.2584 1.05 2.06252 1.29163 2.06252H3.04167C3.0767 2.06252 3.08637 2.06249 3.09426 2.06229C3.39447 2.05468 3.65932 1.86379 3.76147 1.58139C3.76416 1.57397 3.76725 1.56481 3.77832 1.53157L3.84343 1.33623C3.88327 1.21646 3.91798 1.11209 3.96655 1.01882C4.15844 0.650337 4.51345 0.394455 4.92371 0.328943C5.02755 0.31236 5.13752 0.312431 5.26375 0.312511ZM4.50471 2.06252C4.53476 2.00359 4.56139 1.94236 4.5843 1.87903C4.59125 1.8598 4.59807 1.83933 4.60684 1.81303L4.66506 1.63837C4.71824 1.47883 4.73048 1.44628 4.74263 1.42296C4.80659 1.30013 4.92493 1.21483 5.06168 1.193C5.08766 1.18885 5.12239 1.18752 5.29058 1.18752H7.20944C7.37762 1.18752 7.41236 1.18885 7.43833 1.193C7.57508 1.21483 7.69342 1.30013 7.75738 1.42296C7.76953 1.44628 7.78177 1.47882 7.83496 1.63837L7.89314 1.81292L7.91573 1.87904C7.93863 1.94236 7.96526 2.0036 7.9953 2.06252H4.50471Z" fill="#E64848"/>
<path d="M2.70043 3.92925C2.68436 3.68816 2.47588 3.50575 2.2348 3.52182C1.99371 3.5379 1.81129 3.74637 1.82737 3.98746L2.09771 8.04264C2.14758 8.7909 2.18787 9.39532 2.28235 9.86961C2.38059 10.3627 2.54766 10.7746 2.89276 11.0974C3.23786 11.4203 3.65993 11.5596 4.15847 11.6248C4.63799 11.6875 5.24374 11.6875 5.99364 11.6875H6.50633C7.25624 11.6875 7.86203 11.6875 8.34154 11.6248C8.84009 11.5596 9.26216 11.4203 9.60726 11.0974C9.95235 10.7746 10.1194 10.3627 10.2177 9.86961C10.3121 9.39532 10.3524 8.79091 10.4023 8.04265L10.6727 3.98746C10.6887 3.74637 10.5063 3.5379 10.2652 3.52182C10.0241 3.50575 9.81566 3.68816 9.79959 3.92925L9.53129 7.95374C9.47887 8.73998 9.44152 9.28705 9.35953 9.69866C9.27999 10.0979 9.16896 10.3093 9.00947 10.4585C8.84998 10.6077 8.63172 10.7044 8.22805 10.7572C7.8119 10.8116 7.26356 10.8125 6.47557 10.8125H6.02444C5.23645 10.8125 4.68812 10.8116 4.27196 10.7572C3.8683 10.7044 3.65004 10.6077 3.49055 10.4585C3.33106 10.3093 3.22003 10.0979 3.14049 9.69865C3.05849 9.28705 3.02114 8.73998 2.96873 7.95374L2.70043 3.92925Z" fill="#E64848"/>
<path d="M4.74815 4.98136C4.98857 4.95732 5.20297 5.13273 5.22701 5.37316L5.51867 8.28982C5.54272 8.53025 5.3673 8.74464 5.12688 8.76868C4.88645 8.79273 4.67206 8.61731 4.64802 8.37689L4.35635 5.46022C4.33231 5.2198 4.50772 5.0054 4.74815 4.98136Z" fill="#E64848"/>
<path d="M7.75188 4.98136C7.9923 5.0054 8.16772 5.2198 8.14367 5.46022L7.85201 8.37689C7.82797 8.61731 7.61357 8.79273 7.37315 8.76868C7.13272 8.74464 6.95731 8.53025 6.98135 8.28982L7.27302 5.37316C7.29706 5.13273 7.51145 4.95732 7.75188 4.98136Z" fill="#E64848"/>
<path fill-rule="evenodd" clip-rule="evenodd" d="M5.26375 0.312511H7.23626C7.36249 0.312431 7.47246 0.31236 7.57631 0.328943C7.98656 0.394455 8.34158 0.650335 8.53346 1.01882C8.58203 1.11209 8.61674 1.21644 8.65658 1.33622L8.72169 1.53157C8.73271 1.56464 8.73587 1.574 8.73854 1.58138C8.84069 1.86378 9.10554 2.05468 9.40575 2.06229C9.41365 2.06249 9.42331 2.06252 9.45834 2.06252H11.2083C11.45 2.06252 11.6458 2.2584 11.6458 2.50002C11.6458 2.74165 11.45 2.93752 11.2083 2.93752H1.29163C1.05 2.93752 0.854126 2.74165 0.854126 2.50002C0.854126 2.2584 1.05 2.06252 1.29163 2.06252H3.04167C3.0767 2.06252 3.08637 2.06249 3.09426 2.06229C3.39447 2.05468 3.65932 1.86379 3.76147 1.58139C3.76416 1.57397 3.76725 1.56481 3.77832 1.53157L3.84343 1.33623C3.88327 1.21646 3.91798 1.11209 3.96655 1.01882C4.15844 0.650337 4.51345 0.394455 4.92371 0.328943C5.02755 0.31236 5.13752 0.312431 5.26375 0.312511ZM4.50471 2.06252C4.53476 2.00359 4.56139 1.94236 4.5843 1.87903C4.59125 1.8598 4.59807 1.83933 4.60684 1.81303L4.66506 1.63837C4.71824 1.47883 4.73048 1.44628 4.74263 1.42296C4.80659 1.30013 4.92493 1.21483 5.06168 1.193C5.08766 1.18885 5.12239 1.18752 5.29058 1.18752H7.20944C7.37762 1.18752 7.41236 1.18885 7.43833 1.193C7.57508 1.21483 7.69342 1.30013 7.75738 1.42296C7.76953 1.44628 7.78177 1.47882 7.83496 1.63837L7.89314 1.81292L7.91573 1.87904C7.93863 1.94236 7.96526 2.0036 7.9953 2.06252H4.50471Z" stroke="#E64848"/>
<path d="M2.70043 3.92925C2.68436 3.68816 2.47588 3.50575 2.2348 3.52182C1.99371 3.5379 1.81129 3.74637 1.82737 3.98746L2.09771 8.04264C2.14758 8.7909 2.18787 9.39532 2.28235 9.86961C2.38059 10.3627 2.54766 10.7746 2.89276 11.0974C3.23786 11.4203 3.65993 11.5596 4.15847 11.6248C4.63799 11.6875 5.24374 11.6875 5.99364 11.6875H6.50633C7.25624 11.6875 7.86203 11.6875 8.34154 11.6248C8.84009 11.5596 9.26216 11.4203 9.60726 11.0974C9.95235 10.7746 10.1194 10.3627 10.2177 9.86961C10.3121 9.39532 10.3524 8.79091 10.4023 8.04265L10.6727 3.98746C10.6887 3.74637 10.5063 3.5379 10.2652 3.52182C10.0241 3.50575 9.81566 3.68816 9.79959 3.92925L9.53129 7.95374C9.47887 8.73998 9.44152 9.28705 9.35953 9.69866C9.27999 10.0979 9.16896 10.3093 9.00947 10.4585C8.84998 10.6077 8.63172 10.7044 8.22805 10.7572C7.8119 10.8116 7.26356 10.8125 6.47557 10.8125H6.02444C5.23645 10.8125 4.68812 10.8116 4.27196 10.7572C3.8683 10.7044 3.65004 10.6077 3.49055 10.4585C3.33106 10.3093 3.22003 10.0979 3.14049 9.69865C3.05849 9.28705 3.02114 8.73998 2.96873 7.95374L2.70043 3.92925Z" stroke="#E64848"/>
<path d="M4.74815 4.98136C4.98857 4.95732 5.20297 5.13273 5.22701 5.37316L5.51867 8.28982C5.54272 8.53025 5.3673 8.74464 5.12688 8.76868C4.88645 8.79273 4.67206 8.61731 4.64802 8.37689L4.35635 5.46022C4.33231 5.2198 4.50772 5.0054 4.74815 4.98136Z" stroke="#E64848"/>
<path d="M7.75188 4.98136C7.9923 5.0054 8.16772 5.2198 8.14367 5.46022L7.85201 8.37689C7.82797 8.61731 7.61357 8.79273 7.37315 8.76868C7.13272 8.74464 6.95731 8.53025 6.98135 8.28982L7.27302 5.37316C7.29706 5.13273 7.51145 4.95732 7.75188 4.98136Z" stroke="#E64848"/>
</svg>
