<svg width="20" height="20" viewBox="0 0 20 20" fill="none" xmlns="http://www.w3.org/2000/svg">
<path fill-rule="evenodd" clip-rule="evenodd" d="M7.19986 0.145997H8.21713C9.47075 0.145978 10.4812 0.145962 11.2759 0.25281C12.101 0.363741 12.7958 0.601061 13.3475 1.15282C13.8993 1.70457 14.1366 2.39929 14.2475 3.22439C14.3544 4.01911 14.3543 5.02957 14.3543 6.2832V13.896H15.1073C16.2102 13.896 17.1043 14.7901 17.1043 15.893V15.9585C17.1043 16.3382 17.4121 16.646 17.7918 16.646C18.1715 16.646 18.4793 16.3382 18.4793 15.9585V12.329L17.1396 11.8824C16.2974 11.6017 15.7293 10.8135 15.7293 9.92579V7.7085C15.7293 6.56941 16.6527 5.646 17.7918 5.646H18.4718C18.4271 5.12367 18.185 4.63706 17.7935 4.28613C17.7538 4.25051 17.7085 4.2139 17.576 4.10794L16.4457 3.20368C16.1492 2.96648 16.1011 2.53385 16.3383 2.23735C16.5755 1.94086 17.0081 1.89279 17.3046 2.12998L18.4497 3.04607C18.5619 3.13579 18.6393 3.19769 18.7114 3.26229C19.3888 3.8696 19.7979 4.72072 19.8489 5.62911C19.8543 5.72574 19.8543 5.82482 19.8543 5.96843V11.8175C19.8546 11.8281 19.8546 11.8387 19.8543 11.8493V15.9585C19.8543 17.0976 18.9309 18.021 17.7918 18.021C16.6527 18.021 15.7293 17.0976 15.7293 15.9585V15.893C15.7293 15.5495 15.4508 15.271 15.1073 15.271H14.3543V18.4793H14.5835C14.9632 18.4793 15.271 18.7871 15.271 19.1668C15.271 19.5465 14.9632 19.8543 14.5835 19.8543H0.833496C0.4538 19.8543 0.145996 19.5465 0.145996 19.1668C0.145996 18.7871 0.4538 18.4793 0.833496 18.4793H1.06266L1.06266 6.2832C1.06264 5.02957 1.06263 4.01911 1.16948 3.22439C1.28041 2.39929 1.51773 1.70457 2.06948 1.15282C2.62124 0.601061 3.31596 0.363741 4.14106 0.25281C4.93578 0.145962 5.94624 0.145978 7.19986 0.145997ZM2.43766 18.4793H12.9793V6.3335C12.9793 5.0177 12.9779 4.10001 12.8848 3.40761C12.7943 2.73498 12.6289 2.37879 12.3752 2.12509C12.1215 1.87139 11.7653 1.70598 11.0927 1.61555C10.4003 1.52246 9.48263 1.521 8.16683 1.521H7.25016C5.93436 1.521 5.01668 1.52246 4.32427 1.61555C3.65165 1.70598 3.29545 1.87139 3.04175 2.12509C2.78806 2.37879 2.62265 2.73498 2.53221 3.40761C2.43912 4.10001 2.43766 5.0177 2.43766 6.3335V18.4793ZM18.4793 10.8796V7.021H17.7918C17.4121 7.021 17.1043 7.3288 17.1043 7.7085V9.92579C17.1043 10.2217 17.2937 10.4844 17.5744 10.578L18.4793 10.8796ZM8.06221 7.5773C8.3878 7.77266 8.49337 8.19496 8.29802 8.52055L7.54775 9.771H9.0835C9.33118 9.771 9.55972 9.90423 9.68176 10.1198C9.80379 10.3353 9.80046 10.5998 9.67302 10.8122L8.29802 13.1039C8.10267 13.4295 7.68037 13.535 7.35478 13.3397C7.02919 13.1443 6.92362 12.722 7.11897 12.3964L7.86924 11.146H6.3335C6.08581 11.146 5.85727 11.0128 5.73523 10.7972C5.6132 10.5817 5.61654 10.3172 5.74397 10.1048L7.11897 7.81311C7.31432 7.48753 7.73662 7.38195 8.06221 7.5773Z" fill="#FF671D"/>
</svg>
