<svg width="18" height="17" viewBox="0 0 18 17" fill="none" xmlns="http://www.w3.org/2000/svg">
<path fill-rule="evenodd" clip-rule="evenodd" d="M8.26304 1.60118C4.77804 1.96916 2.0625 4.91746 2.0625 8.5C2.0625 12.3315 5.16852 15.4375 9 15.4375C12.5825 15.4375 15.5308 12.722 15.8988 9.23696C14.9038 10.5001 13.3595 11.3125 11.625 11.3125C8.62195 11.3125 6.1875 8.87805 6.1875 5.875C6.1875 4.14054 6.99986 2.59622 8.26304 1.60118ZM0.9375 8.5C0.9375 4.0472 4.5472 0.4375 9 0.4375C9.53747 0.4375 9.80654 0.865943 9.85263 1.2072C9.89697 1.53548 9.77562 1.95299 9.39828 2.181C8.14699 2.9371 7.3125 4.30887 7.3125 5.875C7.3125 8.25673 9.24327 10.1875 11.625 10.1875C13.1911 10.1875 14.5629 9.35301 15.319 8.10172C15.547 7.72438 15.9645 7.60303 16.2928 7.64737C16.6341 7.69346 17.0625 7.96253 17.0625 8.5C17.0625 12.9528 13.4528 16.5625 9 16.5625C4.5472 16.5625 0.9375 12.9528 0.9375 8.5Z" fill="#1C274C"/>
</svg>
