<svg width="233" height="224" viewBox="0 0 233 224" fill="none" xmlns="http://www.w3.org/2000/svg">
<path opacity="0.1" fill-rule="evenodd" clip-rule="evenodd" d="M183.84 22.0001C205.031 37.0936 220.534 58.8703 227.862 83.8335C235.19 108.797 233.916 135.498 224.246 159.65C215.125 182.43 198.275 207.758 174.674 221.384C167.26 225.664 157.781 223.124 153.501 215.711C149.22 208.297 151.76 198.817 159.174 194.537C174.616 185.622 187.83 167.201 195.467 148.128C202.554 130.427 203.487 110.859 198.117 92.5647C192.747 74.2703 181.385 58.3112 165.855 47.2497C150.326 36.1883 131.53 30.6663 112.485 31.5704C93.4398 32.4745 75.2512 39.7522 60.8393 52.2351C46.4274 64.7179 36.6283 81.6817 33.0154 100.403C29.4025 119.123 32.1854 138.515 40.9173 155.465C49.6492 172.414 63.8234 185.937 81.1641 193.863C88.9498 197.422 92.3764 206.618 88.8178 214.404C85.2591 222.19 76.0627 225.616 68.2771 222.058C44.6152 211.242 25.2742 192.789 13.3593 169.662C1.44453 146.534 -2.3528 120.073 2.57708 94.5283C7.50697 68.9832 20.878 45.8358 40.5434 28.8027C60.2088 11.7696 85.0275 1.83894 111.015 0.605265C137.002 -0.62841 162.65 6.90646 183.84 22.0001Z" fill="url(#paint0_linear_14_3330)"/>
<defs>
<linearGradient id="paint0_linear_14_3330" x1="58.4959" y1="16.0214" x2="176.465" y2="220.35" gradientUnits="userSpaceOnUse">
<stop stop-color="#FF671D"/>
<stop offset="1" stop-color="#D94A04"/>
</linearGradient>
</defs>
</svg>
