<svg width="14" height="16" viewBox="0 0 14 16" fill="none" xmlns="http://www.w3.org/2000/svg">
<path d="M7.5 1.83325C7.5 1.55711 7.27614 1.33325 7 1.33325C6.72386 1.33325 6.5 1.55711 6.5 1.83325V4.49992C6.5 4.77606 6.72386 4.99992 7 4.99992C7.27614 4.99992 7.5 4.77606 7.5 4.49992V1.83325Z" fill="#FF671D"/>
<path d="M4.86126 3.43111C5.11563 3.32363 5.23472 3.0303 5.12724 2.77593C5.01977 2.52156 4.72644 2.40248 4.47207 2.50995C2.13888 3.49573 0.5 5.80586 0.5 8.49992C0.5 12.0898 3.41015 14.9999 7 14.9999C10.5899 14.9999 13.5 12.0898 13.5 8.49992C13.5 5.80586 11.8611 3.49573 9.52793 2.50995C9.27356 2.40248 8.98023 2.52156 8.87275 2.77593C8.76528 3.0303 8.88437 3.32363 9.13874 3.43111C11.1148 4.26601 12.5 6.22178 12.5 8.49992C12.5 11.5375 10.0376 13.9999 7 13.9999C3.96243 13.9999 1.5 11.5375 1.5 8.49992C1.5 6.22178 2.88519 4.26601 4.86126 3.43111Z" fill="#FF671D"/>
<path d="M7.5 1.83325C7.5 1.55711 7.27614 1.33325 7 1.33325C6.72386 1.33325 6.5 1.55711 6.5 1.83325V4.49992C6.5 4.77606 6.72386 4.99992 7 4.99992C7.27614 4.99992 7.5 4.77606 7.5 4.49992V1.83325Z" stroke="white" stroke-linecap="round"/>
<path d="M4.86126 3.43111C5.11563 3.32363 5.23472 3.0303 5.12724 2.77593C5.01977 2.52156 4.72644 2.40248 4.47207 2.50995C2.13888 3.49573 0.5 5.80586 0.5 8.49992C0.5 12.0898 3.41015 14.9999 7 14.9999C10.5899 14.9999 13.5 12.0898 13.5 8.49992C13.5 5.80586 11.8611 3.49573 9.52793 2.50995C9.27356 2.40248 8.98023 2.52156 8.87275 2.77593C8.76528 3.0303 8.88437 3.32363 9.13874 3.43111C11.1148 4.26601 12.5 6.22178 12.5 8.49992C12.5 11.5375 10.0376 13.9999 7 13.9999C3.96243 13.9999 1.5 11.5375 1.5 8.49992C1.5 6.22178 2.88519 4.26601 4.86126 3.43111Z" stroke="white" stroke-linecap="round"/>
</svg>
