<svg width="162" height="153" viewBox="0 0 162 153" fill="none" xmlns="http://www.w3.org/2000/svg">
<path fill-rule="evenodd" clip-rule="evenodd" d="M147.242 36.6328C147.021 36.7825 146.721 36.7248 146.571 36.504C146.408 36.2635 146.244 36.0238 146.078 35.7851C145.926 35.566 145.98 35.2649 146.199 35.1128C146.419 34.9607 146.72 35.015 146.872 35.2342C147.039 35.4758 147.206 35.7183 147.371 35.9618C147.521 36.1826 147.463 36.483 147.242 36.6328ZM152.847 46.4484C153.088 46.3343 153.376 46.4373 153.491 46.6785C153.616 46.9443 153.741 47.2109 153.863 47.4781C153.975 47.7206 153.869 48.0074 153.626 48.1189C153.384 48.2303 153.097 48.1242 152.986 47.8817C152.864 47.6177 152.741 47.3543 152.617 47.0917C152.503 46.8505 152.606 46.5625 152.847 46.4484ZM139.06 26.3499C138.866 26.5338 138.561 26.5262 138.377 26.3329C138.176 26.1225 137.975 25.9131 137.772 25.7048C137.586 25.5135 137.59 25.2077 137.782 25.0216C137.973 24.8356 138.279 24.8398 138.465 25.031C138.67 25.2419 138.874 25.4538 139.077 25.6669C139.26 25.8601 139.253 26.1659 139.06 26.3499ZM157.545 58.7213C157.801 58.6484 158.068 58.7972 158.141 59.0539C158.182 59.1954 158.222 59.337 158.261 59.4788C158.3 59.6206 158.34 59.7625 158.378 59.9044C158.448 60.1619 158.297 60.4274 158.039 60.4976C157.782 60.5677 157.516 60.4159 157.446 60.1585C157.408 60.0183 157.369 59.8781 157.33 59.738C157.291 59.5979 157.252 59.458 157.212 59.3182C157.139 59.0615 157.288 58.7943 157.545 58.7213ZM129.301 17.5493C129.14 17.7624 128.837 17.8051 128.624 17.6447C128.508 17.5572 128.391 17.4701 128.275 17.3833C128.158 17.2965 128.041 17.21 127.924 17.1239C127.709 16.9657 127.663 16.6633 127.821 16.4484C127.98 16.2335 128.282 16.1875 128.497 16.3456C128.615 16.4328 128.734 16.5203 128.852 16.6082C128.97 16.6961 129.088 16.7843 129.205 16.8728C129.418 17.0332 129.461 17.3361 129.301 17.5493ZM160.165 71.5992C160.43 71.5694 160.669 71.7601 160.699 72.0252C160.732 72.3175 160.763 72.61 160.793 72.9025C160.82 73.168 160.626 73.405 160.361 73.432C160.095 73.459 159.858 73.2656 159.831 73.0002C159.802 72.7111 159.771 72.4222 159.739 72.1334C159.709 71.8683 159.899 71.6291 160.165 71.5992ZM118.229 10.469C118.106 10.7056 117.814 10.7974 117.577 10.6741C117.32 10.5398 117.061 10.4069 116.802 10.2755C116.564 10.1547 116.469 9.86399 116.59 9.62605C116.711 9.3881 117.001 9.29307 117.239 9.41378C117.502 9.54682 117.763 9.68132 118.024 9.81729C118.261 9.94062 118.353 10.2324 118.229 10.469ZM160.635 84.732C160.902 84.746 161.107 84.9734 161.093 85.2398C161.077 85.5335 161.06 85.8271 161.041 86.1207C161.024 86.3869 160.795 86.5891 160.528 86.5721C160.262 86.5551 160.06 86.3255 160.077 86.0592C160.095 85.7693 160.112 85.4792 160.128 85.189C160.142 84.9225 160.369 84.7179 160.635 84.732ZM106.146 5.30197C106.064 5.5556 105.791 5.69407 105.537 5.61124C105.261 5.52104 104.984 5.43236 104.707 5.34519C104.453 5.26516 104.311 4.99395 104.391 4.73942C104.471 4.48489 104.742 4.34344 104.997 4.42347C105.278 4.51169 105.558 4.60145 105.837 4.69275C106.091 4.77558 106.229 5.04833 106.146 5.30197ZM158.945 97.764C159.206 97.8215 159.37 98.0794 159.313 98.3399C159.249 98.6271 159.184 98.9139 159.118 99.2004C159.057 99.4603 158.797 99.622 158.538 99.5616C158.278 99.5011 158.116 99.2415 158.176 98.9816C158.242 98.6985 158.307 98.4151 158.369 98.1315C158.427 97.8709 158.685 97.7064 158.945 97.764ZM93.3797 2.18753C93.3396 2.45131 93.0933 2.63266 92.8295 2.59258C92.5423 2.54893 92.2548 2.50686 91.967 2.46636C91.7028 2.42918 91.5187 2.18485 91.5559 1.92064C91.5931 1.65643 91.8374 1.47238 92.1016 1.50957C92.3929 1.55056 92.6839 1.59315 92.9747 1.63732C93.2384 1.6774 93.4198 1.92374 93.3797 2.18753ZM155.139 110.342C155.387 110.441 155.507 110.723 155.407 110.97C155.381 111.035 155.355 111.1 155.329 111.165C155.3 111.236 155.27 111.308 155.241 111.379C155.186 111.516 155.13 111.652 155.073 111.788C154.971 112.034 154.688 112.151 154.442 112.049C154.195 111.946 154.078 111.664 154.181 111.417C154.236 111.283 154.292 111.149 154.347 111.014C154.402 110.879 154.456 110.745 154.511 110.61C154.61 110.362 154.891 110.242 155.139 110.342ZM80.2749 1.21054C80.2787 1.47732 80.0654 1.69664 79.7987 1.70039C79.6533 1.70243 79.508 1.70488 79.3626 1.70772C79.2172 1.71056 79.0718 1.7138 78.9265 1.71744C78.6598 1.72413 78.4381 1.51331 78.4315 1.24658C78.4248 0.979854 78.6356 0.758207 78.9023 0.751527C79.0494 0.747841 79.1965 0.744561 79.3437 0.741683C79.4908 0.738806 79.638 0.736333 79.7851 0.734265C80.0519 0.730515 80.2712 0.943751 80.2749 1.21054ZM149.32 122.125C149.548 122.264 149.62 122.561 149.482 122.789C149.329 123.04 149.174 123.291 149.018 123.54C148.877 123.766 148.579 123.835 148.353 123.694C148.126 123.553 148.058 123.255 148.199 123.028C148.353 122.782 148.505 122.535 148.656 122.286C148.795 122.059 149.093 121.986 149.32 122.125ZM67.1869 2.39715C67.2344 2.65971 67.06 2.91104 66.7975 2.95852C66.5115 3.01025 66.2258 3.06353 65.9405 3.11837C65.6785 3.16873 65.4253 2.99715 65.3749 2.73513C65.3245 2.47312 65.4961 2.21988 65.7581 2.16952C66.0469 2.11401 66.336 2.06008 66.6255 2.00773C66.8881 1.96025 67.1394 2.1346 67.1869 2.39715ZM141.647 132.793C141.849 132.968 141.871 133.273 141.697 133.475C141.505 133.697 141.312 133.919 141.117 134.14C140.94 134.34 140.635 134.359 140.435 134.182C140.235 134.006 140.216 133.7 140.393 133.5C140.585 133.282 140.776 133.063 140.966 132.843C141.14 132.642 141.445 132.619 141.647 132.793ZM54.4716 5.71555C54.5615 5.96675 54.4308 6.24329 54.1796 6.33321C53.906 6.43114 53.633 6.53058 53.3605 6.63151C53.1103 6.72419 52.8323 6.59648 52.7396 6.34629C52.647 6.09608 52.7747 5.81812 53.0249 5.72545C53.3007 5.62329 53.577 5.52264 53.8539 5.42352C54.1051 5.3336 54.3817 5.46434 54.4716 5.71555ZM132.327 142.058C132.498 142.263 132.47 142.568 132.265 142.738C132.039 142.926 131.812 143.113 131.584 143.299C131.377 143.467 131.072 143.436 130.904 143.229C130.735 143.022 130.767 142.718 130.974 142.549C131.199 142.366 131.424 142.181 131.647 141.996C131.852 141.825 132.157 141.853 132.327 142.058ZM42.4731 11.0753C42.6031 11.3084 42.5195 11.6026 42.2864 11.7325C42.0327 11.874 41.7797 12.0169 41.5274 12.1612C41.2958 12.2937 41.0006 12.2133 40.8682 11.9817C40.7357 11.7501 40.816 11.455 41.0476 11.3225C41.303 11.1764 41.5591 11.0318 41.8159 10.8886C42.049 10.7587 42.3432 10.8423 42.4731 11.0753ZM121.613 149.667C121.748 149.898 121.671 150.194 121.44 150.328C121.313 150.403 121.186 150.476 121.059 150.55C120.827 150.683 120.532 150.604 120.399 150.373C120.265 150.142 120.344 149.847 120.575 149.713C120.701 149.641 120.827 149.568 120.953 149.494C121.183 149.359 121.479 149.437 121.613 149.667ZM31.517 18.3315C31.6834 18.5401 31.6492 18.8441 31.4407 19.0105C31.3271 19.1011 31.2137 19.1921 31.1005 19.2834C30.9873 19.3748 30.8744 19.4664 30.7618 19.5583C30.5551 19.727 30.2508 19.6961 30.0821 19.4894C29.9134 19.2827 29.9442 18.9784 30.1509 18.8097C30.2649 18.7167 30.3792 18.6239 30.4937 18.5315C30.6083 18.4391 30.7231 18.347 30.8381 18.2552C31.0466 18.0888 31.3506 18.123 31.517 18.3315ZM21.8996 27.2876C22.098 27.466 22.1141 27.7715 21.9357 27.9698C21.7414 28.1859 21.5482 28.403 21.3563 28.6212C21.1801 28.8215 20.8748 28.841 20.6745 28.6648C20.4742 28.4885 20.4547 28.1833 20.6309 27.983C20.8251 27.7622 21.0206 27.5424 21.2173 27.3237C21.3958 27.1253 21.7012 27.1091 21.8996 27.2876ZM13.8828 37.7001C14.1078 37.8436 14.1738 38.1422 14.0304 38.3672C13.8741 38.6122 13.7193 38.8581 13.5657 39.1048C13.4247 39.3313 13.1268 39.4007 12.9003 39.2597C12.6738 39.1187 12.6044 38.8208 12.7454 38.5943C12.9008 38.3446 13.0576 38.0957 13.2157 37.8477C13.3592 37.6227 13.6578 37.5567 13.8828 37.7001ZM7.68315 49.287C7.92861 49.3916 8.0428 49.6753 7.9382 49.9208C7.82432 50.188 7.71187 50.456 7.60088 50.7246C7.49899 50.9712 7.2165 51.0885 6.96991 50.9866C6.7233 50.8847 6.606 50.6022 6.7079 50.3556C6.82024 50.0837 6.93406 49.8125 7.04932 49.542C7.15391 49.2966 7.4377 49.1824 7.68315 49.287ZM3.46916 61.7341C3.72845 61.797 3.88767 62.0582 3.82477 62.3175C3.79051 62.4588 3.75663 62.6001 3.72313 62.7416C3.68962 62.8831 3.65651 63.0247 3.6238 63.1663C3.56375 63.4263 3.30434 63.5884 3.04437 63.5283C2.78439 63.4683 2.62232 63.2089 2.68237 62.9489C2.71549 62.8056 2.74898 62.6623 2.78291 62.519C2.8168 62.3758 2.8511 62.2327 2.88579 62.0897C2.94868 61.8304 3.20986 61.6712 3.46916 61.7341ZM1.35461 74.7046C1.6207 74.7241 1.82063 74.9556 1.80113 75.2217C1.77989 75.5116 1.76026 75.8015 1.74222 76.0915C1.72566 76.3578 1.49636 76.5602 1.23006 76.5436C0.963753 76.5271 0.761306 76.2978 0.77787 76.0315C0.796136 75.738 0.816003 75.4445 0.837486 75.1511C0.856978 74.885 1.0885 74.6851 1.35461 74.7046ZM44.1697 151.864C44.0454 152.1 43.7533 152.191 43.5172 152.066C43.3869 151.998 43.2569 151.929 43.1271 151.86C42.8917 151.734 42.8026 151.441 42.9282 151.206C43.0537 150.971 43.3464 150.882 43.5818 151.007C43.7101 151.075 43.8385 151.144 43.9672 151.211C44.2033 151.336 44.294 151.628 44.1697 151.864ZM1.39743 87.8457C1.66312 87.8213 1.89832 88.0168 1.92275 88.2825C1.94937 88.5719 1.97758 88.8611 2.00738 89.1501C2.03474 89.4155 1.84175 89.6529 1.57634 89.6802C1.31093 89.7076 1.07361 89.5146 1.04625 89.2492C1.0161 88.9566 0.987539 88.6639 0.96061 88.371C0.936169 88.1053 1.13174 87.8701 1.39743 87.8457ZM33.3931 145.136C33.233 145.349 32.9301 145.392 32.7167 145.232C32.4815 145.056 32.2472 144.878 32.014 144.699C31.8024 144.536 31.7625 144.233 31.925 144.021C32.0875 143.81 32.3908 143.77 32.6025 143.932C32.8329 144.109 33.0643 144.285 33.2968 144.459C33.5101 144.62 33.5533 144.922 33.3931 145.136ZM3.59592 100.802C3.85398 100.734 4.11809 100.888 4.1858 101.146C4.25952 101.427 4.3348 101.708 4.41163 101.988C4.48217 102.246 4.33075 102.511 4.07344 102.582C3.81612 102.653 3.55034 102.501 3.47979 102.244C3.40201 101.96 3.32583 101.676 3.25119 101.392C3.1835 101.133 3.33783 100.869 3.59592 100.802ZM23.5155 136.468C23.3225 136.653 23.0167 136.646 22.8325 136.453C22.6294 136.24 22.4275 136.026 22.2268 135.811C22.0447 135.616 22.0552 135.31 22.2502 135.128C22.4452 134.946 22.7509 134.957 22.933 135.152C23.1313 135.364 23.3308 135.575 23.5314 135.785C23.7156 135.978 23.7085 136.284 23.5155 136.468ZM7.89083 113.221C8.1343 113.112 8.42016 113.221 8.5293 113.464C8.58875 113.597 8.64858 113.729 8.7088 113.862C8.76901 113.994 8.82958 114.126 8.89048 114.258C9.0023 114.501 8.89654 114.788 8.65429 114.899C8.41204 115.011 8.125 114.906 8.0132 114.663C7.95155 114.53 7.89024 114.396 7.8293 114.262C7.76836 114.128 7.7078 113.994 7.6476 113.86C7.53846 113.616 7.64736 113.33 7.89083 113.221ZM15.1939 126.298C14.9733 126.448 14.6728 126.391 14.5227 126.17C14.3574 125.927 14.1933 125.683 14.0305 125.438C13.8829 125.216 13.9434 124.916 14.1657 124.768C14.3879 124.62 14.6878 124.681 14.8354 124.903C14.9962 125.145 15.1583 125.386 15.3217 125.627C15.4717 125.847 15.4145 126.148 15.1939 126.298Z" fill="#FF671D"/>
</svg>
