<svg width="14" height="16" viewBox="0 0 14 16" fill="none" xmlns="http://www.w3.org/2000/svg">
<path fill-rule="evenodd" clip-rule="evenodd" d="M7.00007 0.833252C4.1466 0.833252 1.8334 3.14645 1.8334 5.99992V6.46932C1.8334 6.93393 1.69587 7.38815 1.43815 7.77474L0.672417 8.92334C-0.216314 10.2564 0.462158 12.0684 2.00789 12.49C2.51163 12.6274 3.01962 12.7436 3.53056 12.8386L3.53183 12.8421C4.04449 14.21 5.4147 15.1666 7.00002 15.1666C8.58535 15.1666 9.95556 14.21 10.4682 12.8421L10.4695 12.8387C10.9805 12.7436 11.4885 12.6274 11.9922 12.49C13.538 12.0684 14.2164 10.2564 13.3277 8.92334L12.562 7.77474C12.3043 7.38815 12.1667 6.93393 12.1667 6.46932V5.99992C12.1667 3.14645 9.85354 0.833252 7.00007 0.833252ZM9.25101 13.0246C7.7557 13.2032 6.24434 13.2032 4.74903 13.0246C5.223 13.7056 6.04738 14.1666 7.00002 14.1666C7.95266 14.1666 8.77704 13.7056 9.25101 13.0246ZM2.8334 5.99992C2.8334 3.69873 4.69888 1.83325 7.00007 1.83325C9.30125 1.83325 11.1667 3.69873 11.1667 5.99992V6.46932C11.1667 7.13136 11.3627 7.77859 11.7299 8.32944L12.4957 9.47804C13.0058 10.2432 12.6164 11.2833 11.7291 11.5252C8.63296 12.3697 5.36717 12.3697 2.271 11.5252C1.38378 11.2833 0.994351 10.2432 1.50447 9.47804L2.2702 8.32944C2.63744 7.77859 2.8334 7.13136 2.8334 6.46932V5.99992Z" fill="#221F20"/>
</svg>
