<svg width="18" height="17" viewBox="0 0 18 17" fill="none" xmlns="http://www.w3.org/2000/svg">
<path fill-rule="evenodd" clip-rule="evenodd" d="M9 0.4375C8.54645 0.4375 8.12884 0.550215 7.67158 0.739316C7.23006 0.921912 6.71724 1.19103 6.07868 1.52614L4.52804 2.33988C3.74431 2.75115 3.11712 3.08028 2.63285 3.40368C2.13115 3.73873 1.74474 4.09151 1.46334 4.56938C1.18289 5.04566 1.05672 5.56138 0.996216 6.17554C0.937489 6.77168 0.937494 7.50486 0.9375 8.42692V8.57306C0.937494 9.49513 0.937489 10.2283 0.996216 10.8245C1.05672 11.4386 1.18289 11.9543 1.46334 12.4306C1.74474 12.9085 2.13115 13.2613 2.63285 13.5963C3.11712 13.9197 3.74431 14.2488 4.52803 14.6601L6.07861 15.4738C6.71721 15.809 7.23004 16.0781 7.67158 16.2607C8.12884 16.4498 8.54645 16.5625 9 16.5625C9.45355 16.5625 9.87116 16.4498 10.3284 16.2607C10.7699 16.0781 11.2827 15.809 11.9213 15.4739L13.4719 14.6601C14.2557 14.2489 14.8829 13.9197 15.3671 13.5963C15.8688 13.2613 16.2553 12.9085 16.5367 12.4306C16.8171 11.9543 16.9433 11.4386 17.0038 10.8245C17.0625 10.2283 17.0625 9.49514 17.0625 8.57309V8.42691C17.0625 7.50486 17.0625 6.77168 17.0038 6.17554C16.9433 5.56138 16.8171 5.04566 16.5367 4.56938C16.2553 4.09151 15.8688 3.73873 15.3671 3.40368C14.8829 3.08028 14.2557 2.75115 13.4719 2.33988L11.9213 1.52615C11.2828 1.19104 10.7699 0.921915 10.3284 0.739316C9.87116 0.550215 9.45355 0.4375 9 0.4375ZM6.5781 2.53456C7.24539 2.18438 7.713 1.9396 8.10152 1.77892C8.47968 1.62253 8.74534 1.5625 9 1.5625C9.25466 1.5625 9.52032 1.62253 9.89848 1.77892C10.287 1.9396 10.7546 2.18438 11.4219 2.53456L12.9219 3.32172C13.7392 3.75061 14.3134 4.05274 14.7424 4.33924C14.954 4.48059 15.1203 4.61184 15.2546 4.74381L12.7566 5.99281L6.38171 2.63762L6.5781 2.53456ZM5.2085 3.25329L5.0781 3.32172C4.26083 3.75061 3.68665 4.05274 3.25764 4.33924C3.04599 4.48059 2.87967 4.61184 2.7454 4.74381L9 7.87111L11.5179 6.61217L5.36302 3.37277C5.30322 3.34129 5.25144 3.30058 5.2085 3.25329ZM2.20326 5.73053C2.16538 5.89094 2.13675 6.07309 2.1158 6.28583C2.06313 6.82045 2.0625 7.49831 2.0625 8.45613V8.54387C2.0625 9.50169 2.06313 10.1796 2.1158 10.7142C2.16731 11.237 2.26516 11.5752 2.43276 11.8598C2.5994 12.1428 2.84045 12.3822 3.25764 12.6608C3.68665 12.9473 4.26083 13.2494 5.0781 13.6783L6.5781 14.4654C7.24539 14.8156 7.713 15.0604 8.10152 15.2211C8.2242 15.2718 8.33503 15.3124 8.4375 15.3441V8.84764L2.20326 5.73053ZM9.5625 15.3441C9.66496 15.3124 9.7758 15.2718 9.89848 15.2211C10.287 15.0604 10.7546 14.8156 11.4219 14.4654L12.9219 13.6783C13.7392 13.2494 14.3134 12.9473 14.7424 12.6608C15.1595 12.3822 15.4006 12.1428 15.5672 11.8598C15.7348 11.5752 15.8327 11.237 15.8842 10.7142C15.9369 10.1796 15.9375 9.50169 15.9375 8.54387V8.45613C15.9375 7.49831 15.9369 6.82045 15.8842 6.28583C15.8632 6.07309 15.8346 5.89094 15.7967 5.73052L13.3125 6.97264V9.25C13.3125 9.56066 13.0607 9.8125 12.75 9.8125C12.4393 9.8125 12.1875 9.56066 12.1875 9.25V7.53514L9.5625 8.84764V15.3441Z" fill="#221F20"/>
</svg>
