<svg width="20" height="16" viewBox="0 0 20 16" fill="none" xmlns="http://www.w3.org/2000/svg">
<path fill-rule="evenodd" clip-rule="evenodd" d="M15.6927 2.34447C14.9763 2.27158 14.0517 2.27075 12.75 2.27075L7.25001 2.27075C5.94828 2.27075 5.02373 2.27158 4.30728 2.34447C3.60233 2.41618 3.17549 2.55192 2.84487 2.77283C2.51958 2.99019 2.24028 3.26949 2.02292 3.59478C1.80201 3.9254 1.66627 4.35224 1.59456 5.05719C1.52167 5.77364 1.52084 6.69819 1.52084 7.99992C1.52084 9.30165 1.52168 10.2262 1.59456 10.9426C1.66627 11.6476 1.80201 12.0744 2.02292 12.4051C2.24028 12.7304 2.51958 13.0096 2.84487 13.227C3.17549 13.4479 3.60233 13.5837 4.30728 13.6554C5.02373 13.7283 5.94828 13.7291 7.25001 13.7291H12.75C14.0517 13.7291 14.9763 13.7283 15.6927 13.6554C16.3977 13.5837 16.8245 13.4479 17.1551 13.227C17.4804 13.0096 17.7597 12.7303 17.9771 12.4051C18.198 12.0744 18.3338 11.6476 18.4055 10.9426C18.4783 10.2262 18.4792 9.30165 18.4792 7.99992C18.4792 6.69819 18.4783 5.77364 18.4055 5.05719C18.3338 4.35224 18.198 3.9254 17.9771 3.59478C17.7597 3.26949 17.4804 2.99019 17.1551 2.77283C16.8245 2.55192 16.3977 2.41618 15.6927 2.34447ZM15.8319 0.976525C16.6456 1.0593 17.3249 1.23253 17.9191 1.62956C18.3945 1.94723 18.8027 2.35544 19.1204 2.83087C19.5174 3.42507 19.6906 4.10436 19.7734 4.91803C19.8542 5.7122 19.8542 6.7067 19.8542 7.96182V8.03801C19.8542 9.29313 19.8542 10.2876 19.7734 11.0818C19.6906 11.8955 19.5174 12.5748 19.1204 13.169C18.8027 13.6444 18.3945 14.0526 17.9191 14.3703C17.3249 14.7673 16.6456 14.9405 15.8319 15.0233C15.0377 15.1041 14.0432 15.1041 12.7881 15.1041H7.21188C5.95677 15.1041 4.96228 15.1041 4.16813 15.0233C3.35445 14.9405 2.67517 14.7673 2.08097 14.3703C1.60553 14.0526 1.19733 13.6444 0.879654 13.169C0.482621 12.5748 0.30939 11.8955 0.226617 11.0818C0.145829 10.2876 0.145836 9.29315 0.145844 8.03804V7.9618C0.145835 6.70669 0.145829 5.7122 0.226617 4.91803C0.30939 4.10436 0.48262 3.42508 0.879653 2.83087C1.19733 2.35544 1.60553 1.94724 2.08096 1.62956C2.67517 1.23253 3.35445 1.0593 4.16813 0.976526C4.96229 0.895738 5.95678 0.895744 7.21189 0.895752L12.7881 0.895752C14.0432 0.895744 15.0377 0.895737 15.8319 0.976525ZM4.04168 4.56242C4.42137 4.56242 4.72918 4.87022 4.72918 5.24992L4.72918 10.7499C4.72918 11.1296 4.42137 11.4374 4.04168 11.4374C3.66198 11.4374 3.35418 11.1296 3.35418 10.7499L3.35418 5.24992C3.35418 4.87022 3.66198 4.56242 4.04168 4.56242ZM10 5.93742C8.86092 5.93742 7.93751 6.86083 7.93751 7.99992C7.93751 9.13901 8.86092 10.0624 10 10.0624C11.1391 10.0624 12.0625 9.13901 12.0625 7.99992C12.0625 6.86083 11.1391 5.93742 10 5.93742ZM6.56251 7.99992C6.56251 6.10144 8.10153 4.56242 10 4.56242C11.8985 4.56242 13.4375 6.10144 13.4375 7.99992C13.4375 9.8984 11.8985 11.4374 10 11.4374C8.10153 11.4374 6.56251 9.8984 6.56251 7.99992ZM15.9583 4.56242C16.338 4.56242 16.6458 4.87022 16.6458 5.24992V10.7499C16.6458 11.1296 16.338 11.4374 15.9583 11.4374C15.5786 11.4374 15.2708 11.1296 15.2708 10.7499V5.24992C15.2708 4.87022 15.5786 4.56242 15.9583 4.56242Z" fill="#FF671D"/>
</svg>
