<svg width="16" height="15" viewBox="0 0 16 15" fill="none" xmlns="http://www.w3.org/2000/svg">
<path fill-rule="evenodd" clip-rule="evenodd" d="M2.80907 2.30169C5.65557 -0.540801 10.2828 -0.510577 13.1467 2.35333C16.0119 5.21848 16.0409 9.84846 13.1947 12.6946C10.3485 15.5408 5.71851 15.5118 2.85336 12.6467C1.15548 10.9488 0.45434 8.63244 0.755414 6.43592C0.797601 6.12814 1.08131 5.91283 1.38909 5.95502C1.69687 5.9972 1.91218 6.28091 1.86999 6.58869C1.61501 8.44893 2.20843 10.4108 3.64886 11.8512C6.08222 14.2845 9.99985 14.2985 12.3992 11.8992C14.7985 9.49982 14.7846 5.58219 12.3512 3.14883C9.9191 0.716711 6.00423 0.701542 3.60457 3.09718L4.16535 3.1C4.476 3.10156 4.72658 3.35466 4.72501 3.66532C4.72345 3.97597 4.47035 4.22654 4.15969 4.22498L2.25053 4.21539C1.94208 4.21384 1.69241 3.96417 1.69086 3.65572L1.68127 1.74656C1.67971 1.4359 1.93028 1.1828 2.24094 1.18124C2.55159 1.17968 2.80469 1.43025 2.80626 1.7409L2.80907 2.30169ZM7.99997 3.93744C8.31063 3.93744 8.56247 4.18928 8.56247 4.49994V7.26694L10.2727 8.97719C10.4924 9.19686 10.4924 9.55302 10.2727 9.77269C10.053 9.99236 9.69689 9.99236 9.47722 9.77269L7.43747 7.73293V4.49994C7.43747 4.18928 7.68931 3.93744 7.99997 3.93744Z" fill="#221F20"/>
</svg>
