<svg width="20" height="20" viewBox="0 0 20 20" fill="none" xmlns="http://www.w3.org/2000/svg">
<path fill-rule="evenodd" clip-rule="evenodd" d="M7.19969 0.145752H8.21696C9.47059 0.145734 10.481 0.145718 11.2758 0.252566C12.1009 0.363497 12.7956 0.600816 13.3473 1.15257C13.8991 1.70433 14.1364 2.39905 14.2473 3.22415C14.3542 4.01887 14.3542 5.02933 14.3542 6.28296V13.8958H15.1071C16.2101 13.8958 17.1042 14.7899 17.1042 15.8928V15.9583C17.1042 16.3379 17.412 16.6458 17.7917 16.6458C18.1714 16.6458 18.4792 16.3379 18.4792 15.9583V12.3288L17.1394 11.8822C16.2972 11.6015 15.7292 10.8133 15.7292 9.92554V7.70825C15.7292 6.56917 16.6526 5.64575 17.7917 5.64575H18.4716C18.427 5.12343 18.1849 4.63682 17.7934 4.28588C17.7537 4.25027 17.7083 4.21365 17.5758 4.1077L16.4455 3.20343C16.149 2.96624 16.101 2.5336 16.3381 2.23711C16.5753 1.94062 17.008 1.89255 17.3045 2.12974L18.4496 3.04583C18.5617 3.13555 18.6391 3.19744 18.7112 3.26205C19.3887 3.86936 19.7977 4.72047 19.8487 5.62887C19.8542 5.7255 19.8542 5.82458 19.8542 5.96819V11.8172C19.8544 11.8278 19.8544 11.8384 19.8542 11.8491V15.9583C19.8542 17.0973 18.9307 18.0208 17.7917 18.0208C16.6526 18.0208 15.7292 17.0973 15.7292 15.9583V15.8928C15.7292 15.5492 15.4507 15.2708 15.1071 15.2708H14.3542V18.4791H14.5833C14.963 18.4791 15.2708 18.7869 15.2708 19.1666C15.2708 19.5463 14.963 19.8541 14.5833 19.8541H0.833328C0.453632 19.8541 0.145828 19.5463 0.145828 19.1666C0.145828 18.7869 0.453632 18.4791 0.833328 18.4791H1.06249L1.06249 6.28295C1.06248 5.02933 1.06246 4.01887 1.16931 3.22415C1.28024 2.39905 1.51756 1.70433 2.06932 1.15257C2.62107 0.600817 3.31579 0.363497 4.14089 0.252566C4.93561 0.145718 5.94607 0.145734 7.19969 0.145752ZM2.43749 18.4791H12.9792V6.33325C12.9792 5.01746 12.9777 4.09977 12.8846 3.40736C12.7942 2.73474 12.6288 2.37854 12.3751 2.12485C12.1214 1.87115 11.7652 1.70574 11.0926 1.6153C10.4001 1.52221 9.48246 1.52075 8.16666 1.52075H7.24999C5.9342 1.52075 5.01651 1.52221 4.3241 1.6153C3.65148 1.70574 3.29529 1.87115 3.04159 2.12485C2.78789 2.37854 2.62248 2.73474 2.53205 3.40736C2.43895 4.09977 2.43749 5.01746 2.43749 6.33325V18.4791ZM18.4792 10.8794V7.02075H17.7917C17.412 7.02075 17.1042 7.32856 17.1042 7.70825V9.92554C17.1042 10.2215 17.2935 10.4842 17.5743 10.5778L18.4792 10.8794ZM8.06204 7.57706C8.38763 7.77241 8.49321 8.19472 8.29785 8.5203L7.54758 9.77075H9.08333C9.33101 9.77075 9.55955 9.90399 9.68159 10.1195C9.80362 10.3351 9.80029 10.5996 9.67285 10.812L8.29785 13.1036C8.1025 13.4292 7.6802 13.5348 7.35461 13.3394C7.02903 13.1441 6.92345 12.7218 7.1188 12.3962L7.86907 11.1458H6.33333C6.08564 11.1458 5.8571 11.0125 5.73507 10.797C5.61303 10.5814 5.61637 10.3169 5.7438 10.1045L7.1188 7.81287C7.31415 7.48728 7.73646 7.38171 8.06204 7.57706Z" fill="#FF671D"/>
</svg>
