<svg width="20" height="20" viewBox="0 0 20 20" fill="none" xmlns="http://www.w3.org/2000/svg">
<path fill-rule="evenodd" clip-rule="evenodd" d="M9.99999 1.52075C5.31708 1.52075 1.52083 5.317 1.52083 9.99992C1.52083 14.6828 5.31708 18.4791 9.99999 18.4791C14.6829 18.4791 18.4792 14.6828 18.4792 9.99992C18.4792 5.317 14.6829 1.52075 9.99999 1.52075ZM0.145828 9.99992C0.145828 4.55761 4.55769 0.145752 9.99999 0.145752C15.4423 0.145752 19.8542 4.55761 19.8542 9.99992C19.8542 15.4422 15.4423 19.8541 9.99999 19.8541C4.55769 19.8541 0.145828 15.4422 0.145828 9.99992ZM9.99999 5.64575C10.3797 5.64575 10.6875 5.95356 10.6875 6.33325V9.71515L12.7778 11.8054C13.0463 12.0739 13.0463 12.5092 12.7778 12.7777C12.5093 13.0462 12.074 13.0462 11.8055 12.7777L9.51386 10.4861C9.38493 10.3571 9.31249 10.1823 9.31249 9.99992V6.33325C9.31249 5.95356 9.6203 5.64575 9.99999 5.64575Z" fill="#FF671D"/>
</svg>
