<svg width="20" height="18" viewBox="0 0 20 18" fill="none" xmlns="http://www.w3.org/2000/svg">
<path d="M10.0698 6.69021C10.3129 6.39852 10.2735 5.96501 9.98181 5.72193C9.69012 5.47886 9.25661 5.51827 9.01353 5.80996L6.72187 8.55996C6.55109 8.76489 6.51428 9.05011 6.62743 9.29169C6.74058 9.53327 6.98326 9.68758 7.25002 9.68758H8.99051L7.63853 11.31C7.39546 11.6016 7.43487 12.0352 7.72656 12.2782C8.01825 12.5213 8.45176 12.4819 8.69484 12.1902L10.9865 9.44021C11.1573 9.23528 11.1941 8.95005 11.0809 8.70848C10.9678 8.4669 10.7251 8.31258 10.4584 8.31258H8.71786L10.0698 6.69021Z" fill="#FF671D"/>
<path fill-rule="evenodd" clip-rule="evenodd" d="M8.11496 0.979248H9.59339C11.278 0.979234 12.6123 0.979223 13.6566 1.11962C14.7313 1.26411 15.6012 1.56856 16.2872 2.25455C16.9732 2.94055 17.2776 3.81042 17.4221 4.88514C17.4854 5.35579 17.5202 5.88535 17.5393 6.47933C17.8718 6.47997 18.1764 6.48473 18.4308 6.51894C18.7566 6.56275 19.1011 6.66583 19.3843 6.9491C19.6676 7.23237 19.7707 7.57678 19.8145 7.90264C19.8543 8.19855 19.8542 8.56231 19.8542 8.95906V9.0411C19.8542 9.43785 19.8543 9.80161 19.8145 10.0975C19.7707 10.4234 19.6676 10.7678 19.3843 11.0511C19.1011 11.3343 18.7566 11.4374 18.4308 11.4812C18.1764 11.5154 17.8718 11.5202 17.5393 11.5208C17.5202 12.1148 17.4854 12.6444 17.4221 13.115C17.2776 14.1897 16.9732 15.0596 16.2872 15.7456C15.6012 16.4316 14.7313 16.736 13.6566 16.8805C12.6123 17.0209 11.278 17.0209 9.59343 17.0209H8.11497C6.43037 17.0209 5.09601 17.0209 4.05174 16.8805C2.97702 16.736 2.10715 16.4316 1.42115 15.7456C0.735151 15.0596 0.43071 14.1897 0.286218 13.115C0.145818 12.0707 0.145829 10.7364 0.145844 9.0518V8.94837C0.145829 7.26376 0.145818 5.92942 0.286218 4.88514C0.43071 3.81042 0.735151 2.94055 1.42115 2.25455C2.10715 1.56856 2.97702 1.26411 4.05174 1.11962C5.09602 0.979223 6.43035 0.979234 8.11496 0.979248ZM4.23496 2.48236C3.31271 2.60635 2.78136 2.83888 2.39342 3.22683C2.00548 3.61477 1.77295 4.14611 1.64896 5.06836C1.5223 6.01039 1.52084 7.25216 1.52084 9.00008C1.52084 10.748 1.5223 11.9898 1.64896 12.9318C1.77295 13.8541 2.00548 14.3854 2.39342 14.7733C2.78136 15.1613 3.31271 15.3938 4.23496 15.5178C5.17698 15.6445 6.41876 15.6459 8.16668 15.6459H9.54168C11.2896 15.6459 12.5314 15.6445 13.4734 15.5178C14.3956 15.3938 14.927 15.1613 15.3149 14.7733C15.7029 14.3854 15.9354 13.8541 16.0594 12.9318C16.1861 11.9898 16.1875 10.748 16.1875 9.00008C16.1875 7.25216 16.1861 6.01039 16.0594 5.06836C15.9354 4.14611 15.7029 3.61477 15.3149 3.22683C14.927 2.83888 14.3956 2.60635 13.4734 2.48236C12.5314 2.35571 11.2896 2.35425 9.54168 2.35425H8.16668C6.41876 2.35425 5.17698 2.35571 4.23496 2.48236ZM18.0208 7.86283V10.1373C18.1079 10.1333 18.1821 10.1273 18.2476 10.1185C18.3361 10.1066 18.3804 10.0926 18.4004 10.0844C18.405 10.0824 18.408 10.081 18.4098 10.08L18.412 10.0788L18.4133 10.0765C18.4142 10.0748 18.4157 10.0717 18.4176 10.0671C18.4258 10.0471 18.4398 10.0028 18.4517 9.91431C18.4777 9.72114 18.4792 9.45164 18.4792 9.00008C18.4792 8.54852 18.4777 8.27902 18.4517 8.08586C18.4398 7.99734 18.4258 7.95301 18.4176 7.93305C18.4157 7.92842 18.4142 7.92539 18.4133 7.92361L18.412 7.92138L18.4098 7.92012C18.408 7.91919 18.405 7.91771 18.4004 7.91581C18.3804 7.9076 18.3361 7.89358 18.2476 7.88168C18.1821 7.87288 18.1079 7.86689 18.0208 7.86283Z" fill="#FF671D"/>
</svg>
