<svg width="28" height="25" viewBox="0 0 28 25" fill="none" xmlns="http://www.w3.org/2000/svg">
<path d="M14 25C6.27138 25 0 18.999 0 11.6352C0 6.86583 2.6803 2.43711 7.02602 0.0524109L7.10409 0H20.8959L20.974 0.0524109C25.2937 2.43711 28 6.86583 28 11.6352C28 18.999 21.7286 25 14 25ZM7.31227 0.786164C3.27881 3.03983 0.780669 7.18029 0.780669 11.6352C0.780669 18.5797 6.71375 24.2138 14 24.2138C21.2862 24.2138 27.2193 18.5797 27.2193 11.6352C27.2193 7.18029 24.7212 3.03983 20.6877 0.786164H7.31227Z" fill="#BDBCBC"/>
<path d="M14 22.2223C7.91081 22.2223 2.94055 17.5577 2.94055 11.7925C2.94055 8.90989 4.24167 6.13211 6.47959 4.1667C6.81788 3.87844 7.15617 3.61638 7.49446 3.38054L7.57252 3.32812H20.4796L20.5577 3.38054C20.8959 3.61638 21.2342 3.87844 21.5725 4.1667C23.7844 6.13211 25.0855 8.90989 25.0855 11.7925C25.0855 17.5577 20.1153 22.2223 14 22.2223ZM7.70263 3.87844C7.39037 4.08808 7.10412 4.32393 6.81788 4.58599C4.68405 6.42037 3.461 9.06712 3.461 11.7925C3.461 17.2432 8.19706 21.6719 14.0261 21.6719C19.8551 21.6719 24.5651 17.2432 24.5651 11.7925C24.5651 9.06712 23.342 6.42037 21.2082 4.55978C20.922 4.29773 20.6097 4.06188 20.3235 3.85223H7.70263V3.87844Z" fill="#BDBCBC"/>
<path d="M10.2789 6.83972C10.5663 6.83972 10.7993 6.60507 10.7993 6.31561C10.7993 6.02616 10.5663 5.7915 10.2789 5.7915C9.99143 5.7915 9.75842 6.02616 9.75842 6.31561C9.75842 6.60507 9.99143 6.83972 10.2789 6.83972Z" fill="#BDBCBC"/>
<path d="M10.2788 8.28075C9.21189 8.28075 8.35315 7.41597 8.35315 6.34155C8.35315 5.26712 9.21189 4.40234 10.2788 4.40234C11.3457 4.40234 12.2045 5.26712 12.2045 6.34155C12.2045 7.41597 11.3457 8.28075 10.2788 8.28075ZM10.2788 4.90025C9.49813 4.90025 8.8736 5.52918 8.8736 6.31534C8.8736 7.10151 9.49813 7.73044 10.2788 7.73044C11.0595 7.73044 11.684 7.10151 11.684 6.31534C11.684 5.52918 11.0595 4.90025 10.2788 4.90025Z" fill="#BDBCBC"/>
<path d="M10.2789 6.83972C10.5663 6.83972 10.7993 6.60507 10.7993 6.31561C10.7993 6.02616 10.5663 5.7915 10.2789 5.7915C9.99143 5.7915 9.75842 6.02616 9.75842 6.31561C9.75842 6.60507 9.99143 6.83972 10.2789 6.83972Z" fill="#BDBCBC"/>
<path d="M10.2788 8.28075C9.21189 8.28075 8.35315 7.41597 8.35315 6.34155C8.35315 5.26712 9.21189 4.40234 10.2788 4.40234C11.3457 4.40234 12.2045 5.26712 12.2045 6.34155C12.2045 7.41597 11.3457 8.28075 10.2788 8.28075ZM10.2788 4.90025C9.49813 4.90025 8.8736 5.52918 8.8736 6.31534C8.8736 7.10151 9.49813 7.73044 10.2788 7.73044C11.0595 7.73044 11.684 7.10151 11.684 6.31534C11.684 5.52918 11.0595 4.90025 10.2788 4.90025Z" fill="#BDBCBC"/>
<path d="M17.3047 6.83923C17.5922 6.83923 17.8252 6.60458 17.8252 6.31512C17.8252 6.02567 17.5922 5.79102 17.3047 5.79102C17.0173 5.79102 16.7843 6.02567 16.7843 6.31512C16.7843 6.60458 17.0173 6.83923 17.3047 6.83923Z" fill="#BDBCBC"/>
<path d="M17.3048 8.28075C16.2379 8.28075 15.3792 7.41597 15.3792 6.34155C15.3792 5.26712 16.2379 4.40234 17.3048 4.40234C18.3717 4.40234 19.2305 5.26712 19.2305 6.34155C19.2305 7.41597 18.3717 8.28075 17.3048 8.28075ZM17.3048 4.90025C16.5241 4.90025 15.8996 5.52918 15.8996 6.31534C15.8996 7.10151 16.5241 7.73044 17.3048 7.73044C18.0855 7.73044 18.71 7.10151 18.71 6.31534C18.71 5.52918 18.0855 4.90025 17.3048 4.90025Z" fill="#BDBCBC"/>
<path d="M20.9219 11.8708C21.3674 11.8708 21.7286 11.5071 21.7286 11.0585C21.7286 10.6098 21.3674 10.2461 20.9219 10.2461C20.4764 10.2461 20.1152 10.6098 20.1152 11.0585C20.1152 11.5071 20.4764 11.8708 20.9219 11.8708Z" fill="#BDBCBC"/>
<path d="M20.9219 13.9149C19.3605 13.9149 18.0854 12.6309 18.0854 11.0585C18.0854 9.48622 19.3605 8.20215 20.9219 8.20215C22.4832 8.20215 23.7583 9.48622 23.7583 11.0585C23.7583 12.6309 22.4832 13.9149 20.9219 13.9149ZM20.9219 8.72626C19.6468 8.72626 18.6059 9.77448 18.6059 11.0585C18.6059 12.3426 19.6468 13.3908 20.9219 13.3908C22.197 13.3908 23.2379 12.3426 23.2379 11.0585C23.2379 9.77448 22.197 8.72626 20.9219 8.72626Z" fill="#BDBCBC"/>
<path d="M14.0001 11.8708C14.4456 11.8708 14.8067 11.5071 14.8067 11.0585C14.8067 10.6098 14.4456 10.2461 14.0001 10.2461C13.5545 10.2461 13.1934 10.6098 13.1934 11.0585C13.1934 11.5071 13.5545 11.8708 14.0001 11.8708Z" fill="#BDBCBC"/>
<path d="M14 13.9149C12.4387 13.9149 11.1636 12.6309 11.1636 11.0585C11.1636 9.48622 12.4387 8.20215 14 8.20215C15.5613 8.20215 16.8364 9.48622 16.8364 11.0585C16.8364 12.6309 15.5613 13.9149 14 13.9149ZM14 8.72626C12.7249 8.72626 11.684 9.77448 11.684 11.0585C11.684 12.3426 12.7249 13.3908 14 13.3908C15.2751 13.3908 16.316 12.3426 16.316 11.0585C16.316 9.77448 15.2751 8.72626 14 8.72626Z" fill="#BDBCBC"/>
<path d="M7.20818 11.8708C7.6537 11.8708 8.01487 11.5071 8.01487 11.0585C8.01487 10.6098 7.6537 10.2461 7.20818 10.2461C6.76266 10.2461 6.40149 10.6098 6.40149 11.0585C6.40149 11.5071 6.76266 11.8708 7.20818 11.8708Z" fill="#BDBCBC"/>
<path d="M7.20814 13.9149C5.6468 13.9149 4.3717 12.6309 4.3717 11.0585C4.3717 9.48622 5.6468 8.20215 7.20814 8.20215C8.76947 8.20215 10.0446 9.48622 10.0446 11.0585C10.0446 12.6309 8.76947 13.9149 7.20814 13.9149ZM7.20814 8.72626C5.93304 8.72626 4.89215 9.77448 4.89215 11.0585C4.89215 12.3426 5.93304 13.3908 7.20814 13.3908C8.48323 13.3908 9.52412 12.3426 9.52412 11.0585C9.52412 9.77448 8.48323 8.72626 7.20814 8.72626Z" fill="#BDBCBC"/>
<path d="M17.5651 18.029C18.0106 18.029 18.3718 17.6653 18.3718 17.2167C18.3718 16.768 18.0106 16.4043 17.5651 16.4043C17.1196 16.4043 16.7584 16.768 16.7584 17.2167C16.7584 17.6653 17.1196 18.029 17.5651 18.029Z" fill="#BDBCBC"/>
<path d="M17.5651 20.0731C16.0037 20.0731 14.7286 18.7891 14.7286 17.2167C14.7286 15.6444 16.0037 14.3604 17.5651 14.3604C19.1264 14.3604 20.4015 15.6444 20.4015 17.2167C20.4015 18.7891 19.1264 20.0731 17.5651 20.0731ZM17.5651 14.8845C16.29 14.8845 15.2491 15.9327 15.2491 17.2167C15.2491 18.5008 16.29 19.549 17.5651 19.549C18.8402 19.549 19.8811 18.5008 19.8811 17.2167C19.855 15.9327 18.8402 14.8845 17.5651 14.8845Z" fill="#BDBCBC"/>
<path d="M10.435 18.029C10.8805 18.029 11.2417 17.6653 11.2417 17.2167C11.2417 16.768 10.8805 16.4043 10.435 16.4043C9.98946 16.4043 9.6283 16.768 9.6283 17.2167C9.6283 17.6653 9.98946 18.029 10.435 18.029Z" fill="#BDBCBC"/>
<path d="M10.4349 20.0731C8.8736 20.0731 7.59851 18.7891 7.59851 17.2167C7.59851 15.6444 8.8736 14.3604 10.4349 14.3604C11.9963 14.3604 13.2714 15.6444 13.2714 17.2167C13.2714 18.7891 11.9963 20.0731 10.4349 20.0731ZM10.4349 14.8845C9.15985 14.8845 8.11896 15.9327 8.11896 17.2167C8.11896 18.5008 9.15985 19.549 10.4349 19.549C11.71 19.549 12.7509 18.5008 12.7509 17.2167C12.7249 15.9327 11.71 14.8845 10.4349 14.8845Z" fill="#BDBCBC"/>
</svg>
