<svg width="26" height="37" viewBox="0 0 26 37" fill="none" xmlns="http://www.w3.org/2000/svg">
<path d="M13.261 22.6681C6.51637 22.6681 1.04346 17.3507 1.04346 10.8259C1.04346 6.5998 3.3825 2.67559 7.17494 0.562554L7.24307 0.516113H19.2789L19.3471 0.562554C23.1168 2.67559 25.4786 6.5998 25.4786 10.8259C25.4786 17.3507 19.9829 22.6681 13.261 22.6681ZM7.40203 1.21272C3.88211 3.20965 1.70202 6.87844 1.70202 10.8259C1.70202 16.9792 6.87972 21.9715 13.2383 21.9715C19.5969 21.9715 24.7746 16.9792 24.7746 10.8259C24.7746 6.87844 22.5945 3.20965 19.0746 1.21272H7.40203Z" fill="#BDBCBC"/>
<path d="M13.2609 20.2066C7.92425 20.2066 3.58679 16.0734 3.58679 10.965C3.58679 8.41074 4.72225 5.9494 6.67524 4.20789C6.94775 3.95247 7.26568 3.72027 7.5609 3.51128L7.62903 3.46484H18.8928L18.9609 3.51128C19.2561 3.72027 19.5514 3.95247 19.8466 4.20789C21.7996 5.9494 22.9123 8.41074 22.9123 10.965C22.9123 16.0734 18.5749 20.2066 13.2609 20.2066ZM7.76528 3.95247C7.49277 4.13823 7.24297 4.34721 6.99317 4.57941C5.10831 6.20482 4.04098 8.55006 4.04098 10.965C4.04098 15.7948 8.17405 19.719 13.2609 19.719C18.3478 19.719 22.4581 15.7948 22.4581 10.965C22.4581 8.55006 21.3908 6.20482 19.5286 4.55619C19.2788 4.32399 19.0063 4.11501 18.7565 3.92925H7.76528V3.95247Z" fill="#BDBCBC"/>
<path d="M10.0136 6.57676C10.2645 6.57676 10.4678 6.36884 10.4678 6.11235C10.4678 5.85587 10.2645 5.64795 10.0136 5.64795C9.76279 5.64795 9.55945 5.85587 9.55945 6.11235C9.55945 6.36884 9.76279 6.57676 10.0136 6.57676Z" fill="#BDBCBC"/>
<path d="M10.0136 7.85358C9.08253 7.85358 8.33313 7.08731 8.33313 6.13528C8.33313 5.18326 9.08253 4.41699 10.0136 4.41699C10.9447 4.41699 11.6941 5.18326 11.6941 6.13528C11.6941 7.08731 10.9447 7.85358 10.0136 7.85358ZM10.0136 4.85818C9.33233 4.85818 8.78731 5.41546 8.78731 6.11206C8.78731 6.80867 9.33233 7.36595 10.0136 7.36595C10.6949 7.36595 11.2399 6.80867 11.2399 6.11206C11.2399 5.43868 10.6949 4.85818 10.0136 4.85818Z" fill="#BDBCBC"/>
<path d="M10.0136 6.57676C10.2645 6.57676 10.4678 6.36884 10.4678 6.11235C10.4678 5.85587 10.2645 5.64795 10.0136 5.64795C9.76279 5.64795 9.55945 5.85587 9.55945 6.11235C9.55945 6.36884 9.76279 6.57676 10.0136 6.57676Z" fill="#BDBCBC"/>
<path d="M10.0136 7.85358C9.08253 7.85358 8.33313 7.08731 8.33313 6.13528C8.33313 5.18326 9.08253 4.41699 10.0136 4.41699C10.9447 4.41699 11.6941 5.18326 11.6941 6.13528C11.6941 7.08731 10.9447 7.85358 10.0136 7.85358ZM10.0136 4.85818C9.33233 4.85818 8.78731 5.41546 8.78731 6.11206C8.78731 6.80867 9.33233 7.36595 10.0136 7.36595C10.6949 7.36595 11.2399 6.80867 11.2399 6.11206C11.2399 5.43868 10.6949 4.85818 10.0136 4.85818Z" fill="#BDBCBC"/>
<path d="M16.145 6.57627C16.3958 6.57627 16.5992 6.36835 16.5992 6.11186C16.5992 5.85538 16.3958 5.64746 16.145 5.64746C15.8941 5.64746 15.6908 5.85538 15.6908 6.11186C15.6908 6.36835 15.8941 6.57627 16.145 6.57627Z" fill="#BDBCBC"/>
<path d="M16.1451 7.85358C15.214 7.85358 14.4646 7.08731 14.4646 6.13528C14.4646 5.18326 15.214 4.41699 16.1451 4.41699C17.0762 4.41699 17.8256 5.18326 17.8256 6.13528C17.8256 7.08731 17.0762 7.85358 16.1451 7.85358ZM16.1451 4.85818C15.4638 4.85818 14.9188 5.41546 14.9188 6.11206C14.9188 6.80867 15.4638 7.36595 16.1451 7.36595C16.8264 7.36595 17.3714 6.80867 17.3714 6.11206C17.3714 5.43868 16.8264 4.85818 16.1451 4.85818Z" fill="#BDBCBC"/>
<path d="M19.3016 11.0349C19.6904 11.0349 20.0056 10.7126 20.0056 10.315C20.0056 9.91749 19.6904 9.59521 19.3016 9.59521C18.9128 9.59521 18.5977 9.91749 18.5977 10.315C18.5977 10.7126 18.9128 11.0349 19.3016 11.0349Z" fill="#BDBCBC"/>
<path d="M19.3017 12.8462C17.9392 12.8462 16.8264 11.7084 16.8264 10.3152C16.8264 8.92197 17.9392 7.78418 19.3017 7.78418C20.6643 7.78418 21.777 8.92197 21.777 10.3152C21.777 11.7084 20.6416 12.8462 19.3017 12.8462ZM19.3017 8.24858C18.189 8.24858 17.2806 9.17739 17.2806 10.3152C17.2806 11.453 18.189 12.3818 19.3017 12.3818C20.4145 12.3818 21.3228 11.453 21.3228 10.3152C21.3001 9.17739 20.3918 8.24858 19.3017 8.24858Z" fill="#BDBCBC"/>
<path d="M13.2609 11.0349C13.6497 11.0349 13.9649 10.7126 13.9649 10.315C13.9649 9.91749 13.6497 9.59521 13.2609 9.59521C12.8721 9.59521 12.5569 9.91749 12.5569 10.315C12.5569 10.7126 12.8721 11.0349 13.2609 11.0349Z" fill="#BDBCBC"/>
<path d="M13.2612 12.8462C11.8986 12.8462 10.7859 11.7084 10.7859 10.3152C10.7859 8.92197 11.8986 7.78418 13.2612 7.78418C14.6237 7.78418 15.7365 8.92197 15.7365 10.3152C15.7365 11.7084 14.6237 12.8462 13.2612 12.8462ZM13.2612 8.24858C12.1484 8.24858 11.2401 9.17739 11.2401 10.3152C11.2401 11.453 12.1484 12.3818 13.2612 12.3818C14.3739 12.3818 15.2823 11.453 15.2823 10.3152C15.2596 9.17739 14.3512 8.24858 13.2612 8.24858Z" fill="#BDBCBC"/>
<path d="M7.31116 11.0349C7.69996 11.0349 8.01515 10.7126 8.01515 10.315C8.01515 9.91749 7.69996 9.59521 7.31116 9.59521C6.92236 9.59521 6.60718 9.91749 6.60718 10.315C6.60718 10.7126 6.92236 11.0349 7.31116 11.0349Z" fill="#BDBCBC"/>
<path d="M7.31112 12.8462C5.94857 12.8462 4.83582 11.7084 4.83582 10.3152C4.83582 8.92197 5.94857 7.78418 7.31112 7.78418C8.67367 7.78418 9.78642 8.92197 9.78642 10.3152C9.78642 11.7084 8.67367 12.8462 7.31112 12.8462ZM7.31112 8.24858C6.19837 8.24858 5.29 9.17739 5.29 10.3152C5.29 11.453 6.19837 12.3818 7.31112 12.3818C8.42387 12.3818 9.33224 11.453 9.33224 10.3152C9.33224 9.17739 8.42387 8.24858 7.31112 8.24858Z" fill="#BDBCBC"/>
<path d="M16.3495 16.4914C16.7383 16.4914 17.0535 16.1691 17.0535 15.7716C17.0535 15.374 16.7383 15.0518 16.3495 15.0518C15.9607 15.0518 15.6455 15.374 15.6455 15.7716C15.6455 16.1691 15.9607 16.4914 16.3495 16.4914Z" fill="#BDBCBC"/>
<path d="M16.3497 18.3027C14.9871 18.3027 13.8744 17.1649 13.8744 15.7717C13.8744 14.3785 14.9871 13.2407 16.3497 13.2407C17.7122 13.2407 18.825 14.3785 18.825 15.7717C18.825 17.1649 17.7122 18.3027 16.3497 18.3027ZM16.3497 13.7051C15.2369 13.7051 14.3286 14.6339 14.3286 15.7717C14.3286 16.9095 15.2369 17.8383 16.3497 17.8383C17.4624 17.8383 18.3708 16.9095 18.3708 15.7717C18.3708 14.6339 17.4624 13.7051 16.3497 13.7051Z" fill="#BDBCBC"/>
<path d="M10.1274 16.4914C10.5162 16.4914 10.8314 16.1691 10.8314 15.7716C10.8314 15.374 10.5162 15.0518 10.1274 15.0518C9.73865 15.0518 9.42346 15.374 9.42346 15.7716C9.42346 16.1691 9.73865 16.4914 10.1274 16.4914Z" fill="#BDBCBC"/>
<path d="M10.1273 18.3027C8.76473 18.3027 7.65198 17.1649 7.65198 15.7717C7.65198 14.3785 8.76473 13.2407 10.1273 13.2407C11.4898 13.2407 12.6026 14.3785 12.6026 15.7717C12.6026 17.1649 11.4898 18.3027 10.1273 18.3027ZM10.1273 13.7051C9.01453 13.7051 8.10616 14.6339 8.10616 15.7717C8.10616 16.9095 9.01453 17.8383 10.1273 17.8383C11.24 17.8383 12.1484 16.9095 12.1484 15.7717C12.1484 14.6339 11.24 13.7051 10.1273 13.7051Z" fill="#BDBCBC"/>
<path d="M18.8703 36.4841H6.81169C3.33718 36.4841 0.52124 33.6048 0.52124 30.0521C0.52124 26.4994 3.33718 23.6201 6.81169 23.6201H18.8703C22.3448 23.6201 25.1607 26.4994 25.1607 30.0521C25.1607 33.6048 22.3448 36.4841 18.8703 36.4841ZM6.81169 24.3399C3.72324 24.3399 1.20252 26.8942 1.20252 30.0521C1.20252 33.21 3.72324 35.7875 6.81169 35.7875H18.8703C21.9587 35.7875 24.4794 33.21 24.4794 30.0521C24.4794 26.8942 21.9587 24.3167 18.8703 24.3167H6.81169V24.3399Z" fill="#BDBCBC"/>
<path d="M18.6884 35.0907H6.97049C4.2681 35.0907 2.06531 32.8383 2.06531 30.0751C2.06531 27.3119 4.2681 25.0596 6.97049 25.0596H18.6884C21.3908 25.0596 23.5936 27.3119 23.5936 30.0751C23.5936 32.8383 21.4135 35.0907 18.6884 35.0907ZM6.97049 25.733C4.63145 25.733 2.74658 27.6834 2.74658 30.0519C2.74658 32.4204 4.65416 34.3709 6.97049 34.3709H18.6884C21.0275 34.3709 22.9124 32.4204 22.9124 30.0519C22.9124 27.6834 21.0048 25.733 18.6884 25.733H6.97049Z" fill="#BDBCBC"/>
<path d="M7.76565 31.5846C8.59342 31.5846 9.26446 30.8985 9.26446 30.0521C9.26446 29.2057 8.59342 28.5195 7.76565 28.5195C6.93788 28.5195 6.26685 29.2057 6.26685 30.0521C6.26685 30.8985 6.93788 31.5846 7.76565 31.5846Z" fill="#BDBCBC"/>
<path d="M7.7657 33.9299C5.67646 33.9299 3.97327 32.1883 3.97327 30.0521C3.97327 27.9158 5.67646 26.1743 7.7657 26.1743C9.85495 26.1743 11.5581 27.9158 11.5581 30.0521C11.5581 32.1883 9.85495 33.9299 7.7657 33.9299ZM7.7657 26.6619C5.92626 26.6619 4.42745 28.1945 4.42745 30.0753C4.42745 31.9561 5.92626 33.4887 7.7657 33.4887C9.60515 33.4887 11.104 31.9561 11.104 30.0753C11.104 28.1945 9.60515 26.6619 7.7657 26.6619Z" fill="#BDBCBC"/>
<path d="M17.8481 31.5846C18.6758 31.5846 19.3469 30.8985 19.3469 30.0521C19.3469 29.2057 18.6758 28.5195 17.8481 28.5195C17.0203 28.5195 16.3492 29.2057 16.3492 30.0521C16.3492 30.8985 17.0203 31.5846 17.8481 31.5846Z" fill="#BDBCBC"/>
<path d="M17.8483 33.9299C15.7591 33.9299 14.0559 32.1883 14.0559 30.0521C14.0559 27.9158 15.7591 26.1743 17.8483 26.1743C19.9376 26.1743 21.6408 27.9158 21.6408 30.0521C21.6408 32.1883 19.9376 33.9299 17.8483 33.9299ZM17.8483 26.6619C16.0089 26.6619 14.5101 28.1945 14.5101 30.0753C14.5101 31.9561 16.0089 33.4887 17.8483 33.4887C19.6878 33.4887 21.1866 31.9561 21.1866 30.0753C21.1866 28.1945 19.6878 26.6619 17.8483 26.6619Z" fill="#BDBCBC"/>
</svg>
