<svg width="8" height="16" viewBox="0 0 8 16" fill="none" xmlns="http://www.w3.org/2000/svg">
<path d="M3.50001 9.65803H2.58428C1.1853 9.65803 0.485809 9.65803 0.190501 9.19942C-0.104806 8.7408 0.184645 8.10401 0.763547 6.83042L3.04483 1.81161C3.41885 0.98876 3.60586 0.577335 3.80294 0.620024C4.00001 0.662712 4.00001 1.11464 4.00001 2.01851V5.84209C4.00001 6.07779 4.00001 6.19564 4.07323 6.26886C4.14646 6.34209 4.26431 6.34209 4.50001 6.34209H5.41574C6.81472 6.34209 7.51421 6.34209 7.80952 6.8007C8.10483 7.25932 7.81538 7.89611 7.23647 9.16969L4.95519 14.1885C4.58117 15.0114 4.39416 15.4228 4.19709 15.3801C4.00001 15.3374 4.00001 14.8855 4.00001 13.9816V10.158C4.00001 9.92233 4.00001 9.80448 3.92679 9.73125C3.85356 9.65803 3.73571 9.65803 3.50001 9.65803Z" fill="white"/>
</svg>
