<svg width="18" height="18" viewBox="0 0 18 18" fill="none" xmlns="http://www.w3.org/2000/svg">
<path fill-rule="evenodd" clip-rule="evenodd" d="M9.00002 0.0415039C9.3452 0.0415039 9.62502 0.321326 9.62502 0.666504V1.73458C13.1535 2.03411 15.9657 4.84635 16.2653 8.37484H17.3334C17.6785 8.37484 17.9584 8.65466 17.9584 8.99984C17.9584 9.34502 17.6785 9.62484 17.3334 9.62484H16.2653C15.9657 13.1533 13.1535 15.9656 9.62502 16.2651V17.3332C9.62502 17.6783 9.3452 17.9582 9.00002 17.9582C8.65484 17.9582 8.37502 17.6783 8.37502 17.3332V16.2651C4.84653 15.9656 2.0343 13.1533 1.73476 9.62484H0.666687C0.321509 9.62484 0.041687 9.34502 0.041687 8.99984C0.041687 8.65466 0.321509 8.37484 0.666687 8.37484H1.73476C2.0343 4.84635 4.84653 2.03411 8.37502 1.73458V0.666504C8.37502 0.321326 8.65484 0.0415039 9.00002 0.0415039ZM9.00002 2.95817C5.6633 2.95817 2.95835 5.66312 2.95835 8.99984C2.95835 12.3366 5.6633 15.0415 9.00002 15.0415C12.3367 15.0415 15.0417 12.3366 15.0417 8.99984C15.0417 5.66312 12.3367 2.95817 9.00002 2.95817ZM9.00002 7.12484C7.96449 7.12484 7.12502 7.9643 7.12502 8.99984C7.12502 10.0354 7.96449 10.8748 9.00002 10.8748C10.0356 10.8748 10.875 10.0354 10.875 8.99984C10.875 7.9643 10.0356 7.12484 9.00002 7.12484ZM5.87502 8.99984C5.87502 7.27395 7.27413 5.87484 9.00002 5.87484C10.7259 5.87484 12.125 7.27395 12.125 8.99984C12.125 10.7257 10.7259 12.1248 9.00002 12.1248C7.27413 12.1248 5.87502 10.7257 5.87502 8.99984Z" fill="#FF671D"/>
</svg>
