<svg width="18" height="18" viewBox="0 0 18 18" fill="none" xmlns="http://www.w3.org/2000/svg">
<path fill-rule="evenodd" clip-rule="evenodd" d="M7.28634 0.0415042L7.33335 0.0415045C7.67853 0.0415045 7.95835 0.321326 7.95835 0.666504C7.95835 1.01168 7.67853 1.2915 7.33335 1.2915C5.74434 1.2915 4.61545 1.29283 3.75906 1.40797C2.92065 1.52069 2.43761 1.73208 2.08494 2.08476C1.73227 2.43743 1.52087 2.92047 1.40815 3.75888C1.29301 4.61526 1.29169 5.74415 1.29169 7.33317C1.29169 7.67835 1.01187 7.95817 0.666688 7.95817C0.32151 7.95817 0.0416876 7.67835 0.0416876 7.33317L0.0416873 7.28616C0.0416741 5.75469 0.0416635 4.54166 0.1693 3.59232C0.300656 2.6153 0.577421 1.82451 1.20106 1.20087C1.82469 0.577238 2.61548 0.300473 3.5925 0.169117C4.54185 0.0414804 5.75487 0.041491 7.28634 0.0415042ZM14.241 1.40797C13.3846 1.29283 12.2557 1.2915 10.6667 1.2915C10.3215 1.2915 10.0417 1.01168 10.0417 0.666504C10.0417 0.321326 10.3215 0.0415045 10.6667 0.0415045L10.7137 0.0415042C12.2452 0.041491 13.4582 0.0414804 14.4075 0.169117C15.3846 0.300473 16.1753 0.577237 16.799 1.20087C17.4226 1.82451 17.6994 2.6153 17.8307 3.59232C17.9584 4.54166 17.9584 5.75469 17.9584 7.28616V7.33317C17.9584 7.67835 17.6785 7.95817 17.3334 7.95817C16.9882 7.95817 16.7084 7.67835 16.7084 7.33317C16.7084 5.74415 16.707 4.61527 16.5919 3.75888C16.4792 2.92047 16.2678 2.43743 15.9151 2.08476C15.5624 1.73208 15.0794 1.52069 14.241 1.40797ZM6.91447 4.23311C6.73887 4.2095 6.49386 4.20817 6.08335 4.20817C5.47643 4.20817 5.08411 4.2095 4.79504 4.24836C4.52396 4.28481 4.43899 4.34365 4.39141 4.39123C4.34383 4.43881 4.28499 4.52377 4.24855 4.79486C4.20968 5.08393 4.20835 5.47625 4.20835 6.08317C4.20835 6.49368 4.20968 6.73868 4.23329 6.91428C4.24411 6.99475 4.25685 7.03505 4.26432 7.0532C4.26605 7.0574 4.2674 7.06017 4.26824 7.06178L4.26939 7.06381L4.27141 7.06495C4.27302 7.0658 4.27579 7.06714 4.27999 7.06887C4.29814 7.07634 4.33844 7.08908 4.41891 7.0999C4.59451 7.12351 4.83952 7.12484 5.25002 7.12484H6.08335C6.49386 7.12484 6.73887 7.12351 6.91447 7.0999C6.99493 7.08908 7.03523 7.07634 7.05338 7.06887C7.05759 7.06714 7.06035 7.0658 7.06196 7.06495L7.06399 7.06381L7.06514 7.06178C7.06598 7.06017 7.06733 7.0574 7.06906 7.0532C7.07652 7.03505 7.08927 6.99475 7.10008 6.91428C7.12369 6.73868 7.12502 6.49368 7.12502 6.08317V5.24984C7.12502 4.83933 7.12369 4.59433 7.10008 4.41872C7.08927 4.33826 7.07652 4.29796 7.06906 4.27981L7.06759 4.27636C7.06655 4.27403 7.06514 4.27123 7.06514 4.27123L7.06399 4.2692L7.06196 4.26805C7.06035 4.26721 7.05759 4.26587 7.05338 4.26414C7.03523 4.25667 6.99493 4.24393 6.91447 4.23311ZM7.08103 2.99425C7.37726 3.03408 7.69037 3.12779 7.94788 3.38531C8.2054 3.64283 8.29911 3.95593 8.33894 4.25216C8.37511 4.52117 8.37507 4.85187 8.37502 5.21255C8.37502 5.22495 8.37502 5.23737 8.37502 5.24984V6.08317C8.37502 6.09563 8.37502 6.10806 8.37502 6.12046C8.37507 6.48114 8.37511 6.81183 8.33894 7.08084C8.29911 7.37708 8.2054 7.69018 7.94788 7.9477C7.69037 8.20522 7.37726 8.29893 7.08103 8.33875C6.81202 8.37492 6.48132 8.37488 6.12064 8.37484C6.10825 8.37484 6.09582 8.37484 6.08335 8.37484H5.25002C5.23756 8.37484 5.22513 8.37484 5.21273 8.37484C4.85205 8.37488 4.52136 8.37492 4.25235 8.33875C3.95611 8.29893 3.64301 8.20522 3.38549 7.9477C3.12797 7.69018 3.03426 7.37708 2.99444 7.08084C2.95827 6.81183 2.95831 6.48114 2.95835 6.12046C2.95835 6.10807 2.95835 6.09564 2.95835 6.08317L2.95835 6.04202C2.95832 5.48797 2.95829 5.01059 3.00969 4.6283C3.06477 4.2186 3.18899 3.82588 3.50753 3.50735C3.82607 3.18881 4.21879 3.06459 4.62848 3.00951C5.01077 2.95811 5.48815 2.95814 6.04221 2.95817L6.08335 2.95817C6.09582 2.95817 6.10825 2.95817 6.12065 2.95817C6.48132 2.95813 6.81202 2.95809 7.08103 2.99425ZM11.8794 2.95817L11.9578 2.95817C12.5119 2.95814 12.9893 2.95811 13.3716 3.00951C13.7813 3.06459 14.174 3.18881 14.4925 3.50735C14.8111 3.82588 14.9353 4.2186 14.9903 4.6283C15.0417 5.01059 15.0417 5.48798 15.0417 6.04203L15.0417 6.12046C15.0417 6.48114 15.0418 6.81183 15.0056 7.08084C14.9658 7.37708 14.8721 7.69018 14.6146 7.9477C14.357 8.20522 14.0439 8.29893 13.7477 8.33875C13.4787 8.37492 13.148 8.37488 12.7873 8.37484H11.8794C11.5187 8.37488 11.188 8.37492 10.919 8.33875C10.6228 8.29893 10.3097 8.20522 10.0522 7.9477C9.79464 7.69018 9.70093 7.37708 9.6611 7.08084C9.62494 6.81183 9.62498 6.48114 9.62502 6.12046V5.21255C9.62498 4.85187 9.62494 4.52117 9.6611 4.25216C9.70093 3.95593 9.79464 3.64283 10.0522 3.38531C10.3097 3.12779 10.6228 3.03408 10.919 2.99425C11.188 2.95809 11.5187 2.95813 11.8794 2.95817ZM10.9381 4.26805L10.9361 4.2692L10.9349 4.27123C10.9341 4.27284 10.9327 4.2756 10.931 4.27981C10.9235 4.29796 10.9108 4.33826 10.9 4.41872C10.8763 4.59433 10.875 4.83933 10.875 5.24984V6.08317C10.875 6.49368 10.8763 6.73868 10.9 6.91428C10.9108 6.99475 10.9235 7.03505 10.931 7.0532C10.9327 7.0574 10.9341 7.06017 10.9349 7.06178L10.9361 7.06381L10.9381 7.06495C10.9397 7.0658 10.9425 7.06714 10.9467 7.06887C10.9648 7.07634 11.0051 7.08908 11.0856 7.0999C11.2612 7.12351 11.5062 7.12484 11.9167 7.12484H12.75C13.1605 7.12484 13.4055 7.12351 13.5811 7.0999C13.6616 7.08908 13.7019 7.07634 13.72 7.06887C13.7243 7.06714 13.727 7.0658 13.7286 7.06495L13.7307 7.06381L13.7318 7.06178C13.7326 7.06017 13.734 7.05741 13.7357 7.0532C13.7432 7.03505 13.7559 6.99475 13.7668 6.91428C13.7904 6.73868 13.7917 6.49368 13.7917 6.08317C13.7917 5.47625 13.7904 5.08393 13.7515 4.79486C13.715 4.52377 13.6562 4.43881 13.6086 4.39123C13.5611 4.34365 13.4761 4.28481 13.205 4.24836C12.9159 4.2095 12.5236 4.20817 11.9167 4.20817C11.5062 4.20817 11.2612 4.2095 11.0856 4.23311C11.0051 4.24393 10.9648 4.25667 10.9467 4.26414L10.9428 4.26581C10.9407 4.26675 10.9381 4.26805 10.9381 4.26805ZM4.26939 7.06381V7.06381ZM7.06399 7.06381V7.06381ZM7.06399 7.06381V7.06381ZM10.9361 7.06381V7.06381ZM5.21273 9.62483H6.12064C6.48132 9.62479 6.81202 9.62475 7.08103 9.66092C7.37726 9.70075 7.69037 9.79445 7.94788 10.052C8.2054 10.3095 8.29911 10.6226 8.33894 10.9188C8.37511 11.1878 8.37507 11.5185 8.37502 11.8792V12.7871C8.37507 13.1478 8.37511 13.4785 8.33894 13.7475C8.29911 14.0437 8.2054 14.3568 7.94788 14.6144C7.69037 14.8719 7.37726 14.9656 7.08103 15.0054C6.81202 15.0416 6.48132 15.0415 6.12064 15.0415L6.04221 15.0415C5.48816 15.0415 5.01077 15.0416 4.62848 14.9902C4.21879 14.9351 3.82607 14.8109 3.50753 14.4923C3.18899 14.1738 3.06477 13.7811 3.00969 13.3714C2.95829 12.9891 2.95832 12.5117 2.95835 11.9576L2.95835 11.8792C2.95831 11.5185 2.95827 11.1878 2.99444 10.9188C3.03426 10.6226 3.12797 10.3095 3.38549 10.052C3.64301 9.79445 3.95611 9.70075 4.25235 9.66092C4.52136 9.62475 4.85205 9.62479 5.21273 9.62483ZM4.27141 10.9347L4.26938 10.9359L4.26824 10.9379C4.2674 10.9395 4.26605 10.9423 4.26432 10.9465C4.25685 10.9646 4.24411 11.0049 4.23329 11.0854C4.20968 11.261 4.20835 11.506 4.20835 11.9165C4.20835 12.5234 4.20968 12.9157 4.24855 13.2048C4.28499 13.4759 4.34383 13.5609 4.39141 13.6084C4.43899 13.656 4.52396 13.7149 4.79504 13.7513C5.08411 13.7902 5.47643 13.7915 6.08335 13.7915C6.49386 13.7915 6.73887 13.7902 6.91447 13.7666C6.99493 13.7558 7.03523 13.743 7.05338 13.7355C7.05759 13.7338 7.06035 13.7325 7.06196 13.7316L7.06399 13.7305L7.06514 13.7284C7.06598 13.7268 7.06733 13.7241 7.06906 13.7199C7.07652 13.7017 7.08927 13.6614 7.10008 13.581C7.12369 13.4053 7.12502 13.1603 7.12502 12.7498V11.9165C7.12502 11.506 7.12369 11.261 7.10008 11.0854C7.08927 11.0049 7.07652 10.9646 7.06906 10.9465C7.06733 10.9423 7.06598 10.9395 7.06514 10.9379L7.06399 10.9359L7.06196 10.9347C7.06035 10.9339 7.05759 10.9325 7.05338 10.9308C7.03523 10.9233 6.99493 10.9106 6.91447 10.8998C6.73886 10.8762 6.49386 10.8748 6.08335 10.8748H5.25002C4.83952 10.8748 4.59451 10.8762 4.41891 10.8998C4.33844 10.9106 4.29814 10.9233 4.27999 10.9308C4.27579 10.9325 4.27302 10.9339 4.27141 10.9347ZM11.8794 9.62483H12.7873C13.148 9.62479 13.4787 9.62475 13.7477 9.66092C14.0439 9.70075 14.357 9.79445 14.6146 10.052C14.8721 10.3095 14.9658 10.6226 15.0056 10.9188C15.0418 11.1878 15.0417 11.5185 15.0417 11.8792L15.0417 11.9576C15.0417 12.5117 15.0417 12.9891 14.9903 13.3714C14.9353 13.7811 14.8111 14.1738 14.4925 14.4923C14.174 14.8109 13.7813 14.9351 13.3716 14.9902C12.9893 15.0416 12.5119 15.0415 11.9578 15.0415L11.8794 15.0415C11.5187 15.0415 11.188 15.0416 10.919 15.0054C10.6228 14.9656 10.3097 14.8719 10.0522 14.6144C9.79464 14.3568 9.70093 14.0437 9.6611 13.7475C9.62494 13.4785 9.62498 13.1478 9.62502 12.7871V11.8792C9.62498 11.5185 9.62494 11.1878 9.6611 10.9188C9.70093 10.6226 9.79464 10.3095 10.0522 10.052C10.3097 9.79445 10.6228 9.70075 10.919 9.66092C11.188 9.62475 11.5187 9.62479 11.8794 9.62483ZM10.9381 10.9347L10.9361 10.9357L10.9349 10.9379L10.9333 10.9412C10.9333 10.9412 10.9318 10.9444 10.931 10.9465C10.9235 10.9646 10.9108 11.0049 10.9 11.0854C10.8763 11.261 10.875 11.506 10.875 11.9165V12.7498C10.875 13.1603 10.8763 13.4053 10.9 13.581C10.9108 13.6614 10.9235 13.7017 10.931 13.7199C10.9319 13.7221 10.9334 13.7254 10.9334 13.7254L10.9349 13.7284L10.9361 13.7305L10.9381 13.7316C10.9397 13.7325 10.9425 13.7338 10.9467 13.7355C10.9648 13.743 11.0051 13.7558 11.0856 13.7666C11.2612 13.7902 11.5062 13.7915 11.9167 13.7915C12.5236 13.7915 12.9159 13.7902 13.205 13.7513C13.4761 13.7149 13.5611 13.656 13.6086 13.6084C13.6562 13.5609 13.715 13.4759 13.7515 13.2048C13.7904 12.9157 13.7917 12.5234 13.7917 11.9165C13.7917 11.506 13.7904 11.261 13.7668 11.0854C13.7559 11.0049 13.7432 10.9646 13.7357 10.9465C13.734 10.9423 13.7326 10.9395 13.7318 10.9379L13.7307 10.9359L13.7286 10.9347C13.727 10.9339 13.7243 10.9325 13.72 10.9308C13.7019 10.9233 13.6616 10.9106 13.5811 10.8998C13.4055 10.8762 13.1605 10.8748 12.75 10.8748H11.9167C11.5062 10.8748 11.2612 10.8762 11.0856 10.8998C11.0051 10.9106 10.9648 10.9233 10.9467 10.9308C10.9425 10.9325 10.9397 10.9339 10.9381 10.9347ZM0.666688 10.0415C1.01187 10.0415 1.29169 10.3213 1.29169 10.6665C1.29169 12.2555 1.29301 13.3844 1.40815 14.2408C1.52087 15.0792 1.73227 15.5622 2.08494 15.9149C2.43761 16.2676 2.92065 16.479 3.75906 16.5917C4.61545 16.7068 5.74434 16.7082 7.33335 16.7082C7.67853 16.7082 7.95835 16.988 7.95835 17.3332C7.95835 17.6783 7.67853 17.9582 7.33335 17.9582H7.28635C5.75488 17.9582 4.54185 17.9582 3.5925 17.8306C2.61548 17.6992 1.82469 17.4224 1.20106 16.7988C0.577421 16.1752 0.300656 15.3844 0.1693 14.4074C0.0416635 13.458 0.0416741 12.245 0.0416873 10.7135L0.0416876 10.6665C0.0416876 10.3213 0.32151 10.0415 0.666688 10.0415ZM17.3334 10.0415C17.6785 10.0415 17.9584 10.3213 17.9584 10.6665V10.7135C17.9584 12.245 17.9584 13.458 17.8307 14.4074C17.6994 15.3844 17.4226 16.1752 16.799 16.7988C16.1753 17.4224 15.3846 17.6992 14.4075 17.8306C13.4582 17.9582 12.2452 17.9582 10.7137 17.9582H10.6667C10.3215 17.9582 10.0417 17.6783 10.0417 17.3332C10.0417 16.988 10.3215 16.7082 10.6667 16.7082C12.2557 16.7082 13.3846 16.7068 14.241 16.5917C15.0794 16.479 15.5624 16.2676 15.9151 15.9149C16.2678 15.5622 16.4792 15.0792 16.5919 14.2408C16.707 13.3844 16.7084 12.2555 16.7084 10.6665C16.7084 10.3213 16.9882 10.0415 17.3334 10.0415Z" fill="#FF671D"/>
</svg>
