<svg width="16" height="15" viewBox="0 0 16 15" fill="none" xmlns="http://www.w3.org/2000/svg">
<path fill-rule="evenodd" clip-rule="evenodd" d="M7.52798 1.70556C7.26549 2.04832 6.96921 2.57717 6.53885 3.3492L6.32038 3.7411C6.30722 3.76473 6.29421 3.78813 6.28134 3.81129C6.08085 4.1721 5.91163 4.47662 5.63896 4.68361C5.36335 4.89284 5.02737 4.96834 4.6369 5.05609C4.6118 5.06173 4.58649 5.06742 4.56094 5.0732L4.13671 5.16919C3.29983 5.35854 2.7305 5.48882 2.34055 5.6425C1.96001 5.79246 1.87969 5.91533 1.84907 6.01379C1.81676 6.1177 1.8158 6.27664 2.04329 6.63802C2.27419 7.00481 2.66372 7.46231 3.23341 8.12849L3.52262 8.46668C3.53943 8.48634 3.55609 8.50577 3.57258 8.525C3.84125 8.8384 4.06527 9.09972 4.16803 9.43017C4.27017 9.75862 4.23632 10.1038 4.19527 10.5222C4.19276 10.5479 4.19021 10.5739 4.18767 10.6001L4.14394 11.0513C4.05788 11.9394 3.99985 12.5509 4.01948 12.9915C4.03906 13.4311 4.13193 13.5527 4.20576 13.6087C4.27144 13.6586 4.39283 13.7138 4.78832 13.6004C5.19023 13.4853 5.7244 13.2409 6.50801 12.8801L6.90522 12.6972C6.92968 12.686 6.95391 12.6748 6.97793 12.6636C7.34113 12.4957 7.65623 12.3501 8.00001 12.3501C8.34379 12.3501 8.65889 12.4957 9.02209 12.6636C9.04611 12.6748 9.07034 12.686 9.0948 12.6972L9.49201 12.8801C10.2756 13.2409 10.8098 13.4853 11.2117 13.6004C11.6072 13.7138 11.7286 13.6586 11.7943 13.6087C11.8681 13.5527 11.961 13.4311 11.9805 12.9915C12.0002 12.5509 11.9421 11.9394 11.8561 11.0513L11.8124 10.6001C11.8098 10.5739 11.8073 10.5479 11.8047 10.5223C11.7637 10.1038 11.7298 9.75863 11.832 9.43017C11.9347 9.09972 12.1588 8.8384 12.4275 8.52499C12.4439 8.50576 12.4606 8.48633 12.4774 8.46668L12.7666 8.12848C13.3363 7.46231 13.7258 7.00481 13.9567 6.63802C14.1842 6.27664 14.1833 6.1177 14.1509 6.01379C14.1203 5.91533 14.04 5.79246 13.6595 5.6425C13.2695 5.48882 12.7002 5.35854 11.8633 5.16919L11.4391 5.0732C11.4135 5.06742 11.3882 5.06173 11.3631 5.05609C10.9726 4.96834 10.6367 4.89284 10.3611 4.68361C10.0884 4.47662 9.91917 4.1721 9.71868 3.81129C9.70581 3.78813 9.69281 3.76472 9.67964 3.7411L9.46117 3.3492C9.03081 2.57717 8.73453 2.04832 8.47204 1.70556C8.2098 1.36312 8.07585 1.3335 8.00001 1.3335C7.92417 1.3335 7.79022 1.36312 7.52798 1.70556ZM6.73404 1.09756C7.05183 0.682584 7.44461 0.333496 8.00001 0.333496C8.55541 0.333496 8.94819 0.682583 9.26598 1.09756C9.57824 1.50532 9.90935 2.09934 10.314 2.82534L10.5531 3.2542C10.8148 3.72365 10.8817 3.82338 10.9657 3.88712C11.0465 3.94848 11.1508 3.9827 11.6598 4.09786L12.1264 4.20345C12.9102 4.38075 13.5559 4.52682 14.0261 4.71214C14.5142 4.9045 14.9414 5.18803 15.1058 5.71684C15.2686 6.24021 15.0857 6.72171 14.803 7.17077C14.5283 7.60708 14.0896 8.12006 13.5537 8.74668L13.2374 9.11661C12.8927 9.51965 12.8207 9.61827 12.7869 9.72711C12.7524 9.83808 12.7556 9.96631 12.8077 10.5036L12.8554 10.9957C12.9365 11.8331 13.0027 12.5159 12.9796 13.036C12.956 13.5653 12.8358 14.0736 12.3989 14.4052C11.9539 14.743 11.4361 14.705 10.9363 14.5618C10.4516 14.4229 9.84737 14.1447 9.11367 13.8068L8.67657 13.6056C8.19835 13.3854 8.09596 13.3501 8.00001 13.3501C7.90406 13.3501 7.80168 13.3854 7.32345 13.6056L6.88635 13.8068C6.15265 14.1447 5.54843 14.4229 5.06376 14.5618C4.56391 14.705 4.04613 14.743 3.60112 14.4052C3.16427 14.0736 3.04405 13.5653 3.02047 13.036C2.9973 12.5159 3.06349 11.8331 3.14465 10.9957L3.19233 10.5036C3.2444 9.96631 3.24765 9.83808 3.21314 9.72711C3.17929 9.61828 3.10729 9.51965 2.76262 9.11661L2.4463 8.74671C1.9104 8.12008 1.47169 7.60708 1.19702 7.17077C0.914329 6.72171 0.731425 6.24021 0.894177 5.71684C1.05862 5.18803 1.48578 4.9045 1.9739 4.71214C2.44414 4.52682 3.08983 4.38075 3.87358 4.20344L3.91603 4.19384L4.34026 4.09786C4.84922 3.9827 4.95349 3.94848 5.03432 3.88712C5.11829 3.82338 5.18523 3.72365 5.44693 3.2542L5.686 2.82533C6.09067 2.09934 6.42179 1.50531 6.73404 1.09756Z" fill="#FF671D"/>
</svg>
